<mxfile host="app.diagrams.net" modified="2023-08-06T15:58:01.768Z" agent="Mozilla/5.0 (Windows NT 10.0; Win64; x64) AppleWebKit/537.36 (KHTML, like Gecko) Chrome/115.0.0.0 Safari/537.36" etag="ETsftbCBuSR0eSA1ztXE" version="21.6.6" type="device">
  <diagram name="Trang-1" id="NuC8r2vd-KMZ960mRh8-">
    <mxGraphModel dx="6563" dy="3000" grid="1" gridSize="10" guides="1" tooltips="1" connect="1" arrows="1" fold="1" page="1" pageScale="1" pageWidth="827" pageHeight="1169" math="0" shadow="0">
      <root>
        <mxCell id="0" />
        <mxCell id="1" parent="0" />
        <mxCell id="QvZKXtN4AoNPRNgKa_zs-1" value="Dữ liệu phân vùng dùng chung toàn Bank" style="rounded=0;whiteSpace=wrap;html=1;fillColor=#f8cecc;strokeColor=#b85450;" parent="1" vertex="1">
          <mxGeometry x="-520" y="30" width="120" height="60" as="geometry" />
        </mxCell>
        <mxCell id="QvZKXtN4AoNPRNgKa_zs-2" value="Dữ liệu phân vùng dùng chung EDA" style="rounded=0;whiteSpace=wrap;html=1;fillColor=#fff2cc;strokeColor=#d6b656;" parent="1" vertex="1">
          <mxGeometry x="-330" y="30" width="120" height="60" as="geometry" />
        </mxCell>
        <mxCell id="QvZKXtN4AoNPRNgKa_zs-3" value="Dữ liệu trên WORKSPACE" style="rounded=0;whiteSpace=wrap;html=1;" parent="1" vertex="1">
          <mxGeometry x="-140" y="30" width="120" height="60" as="geometry" />
        </mxCell>
        <mxCell id="QvZKXtN4AoNPRNgKa_zs-36" style="edgeStyle=orthogonalEdgeStyle;rounded=0;orthogonalLoop=1;jettySize=auto;html=1;" parent="1" source="QvZKXtN4AoNPRNgKa_zs-4" target="QvZKXtN4AoNPRNgKa_zs-5" edge="1">
          <mxGeometry relative="1" as="geometry" />
        </mxCell>
        <mxCell id="QvZKXtN4AoNPRNgKa_zs-37" style="edgeStyle=orthogonalEdgeStyle;rounded=0;orthogonalLoop=1;jettySize=auto;html=1;" parent="1" source="QvZKXtN4AoNPRNgKa_zs-4" target="QvZKXtN4AoNPRNgKa_zs-35" edge="1">
          <mxGeometry relative="1" as="geometry" />
        </mxCell>
        <mxCell id="NVmyvmoRvvZ_c8W7CN1m-15" style="edgeStyle=orthogonalEdgeStyle;rounded=0;orthogonalLoop=1;jettySize=auto;html=1;" parent="1" source="QvZKXtN4AoNPRNgKa_zs-4" target="NVmyvmoRvvZ_c8W7CN1m-14" edge="1">
          <mxGeometry relative="1" as="geometry" />
        </mxCell>
        <mxCell id="NVmyvmoRvvZ_c8W7CN1m-35" style="edgeStyle=orthogonalEdgeStyle;rounded=0;orthogonalLoop=1;jettySize=auto;html=1;entryX=0.5;entryY=0;entryDx=0;entryDy=0;" parent="1" source="QvZKXtN4AoNPRNgKa_zs-4" target="NVmyvmoRvvZ_c8W7CN1m-34" edge="1">
          <mxGeometry relative="1" as="geometry" />
        </mxCell>
        <mxCell id="NVmyvmoRvvZ_c8W7CN1m-53" style="edgeStyle=orthogonalEdgeStyle;rounded=0;orthogonalLoop=1;jettySize=auto;html=1;entryX=0.5;entryY=0;entryDx=0;entryDy=0;" parent="1" source="QvZKXtN4AoNPRNgKa_zs-4" target="NVmyvmoRvvZ_c8W7CN1m-52" edge="1">
          <mxGeometry relative="1" as="geometry" />
        </mxCell>
        <mxCell id="NVmyvmoRvvZ_c8W7CN1m-98" style="edgeStyle=orthogonalEdgeStyle;rounded=0;orthogonalLoop=1;jettySize=auto;html=1;" parent="1" source="QvZKXtN4AoNPRNgKa_zs-4" target="NVmyvmoRvvZ_c8W7CN1m-73" edge="1">
          <mxGeometry relative="1" as="geometry" />
        </mxCell>
        <mxCell id="NVmyvmoRvvZ_c8W7CN1m-100" style="edgeStyle=orthogonalEdgeStyle;rounded=0;orthogonalLoop=1;jettySize=auto;html=1;" parent="1" source="QvZKXtN4AoNPRNgKa_zs-4" target="NVmyvmoRvvZ_c8W7CN1m-99" edge="1">
          <mxGeometry relative="1" as="geometry" />
        </mxCell>
        <mxCell id="NVmyvmoRvvZ_c8W7CN1m-111" style="edgeStyle=orthogonalEdgeStyle;rounded=0;orthogonalLoop=1;jettySize=auto;html=1;entryX=0.5;entryY=0;entryDx=0;entryDy=0;" parent="1" source="QvZKXtN4AoNPRNgKa_zs-4" target="NVmyvmoRvvZ_c8W7CN1m-110" edge="1">
          <mxGeometry relative="1" as="geometry" />
        </mxCell>
        <mxCell id="NVmyvmoRvvZ_c8W7CN1m-146" style="edgeStyle=orthogonalEdgeStyle;rounded=0;orthogonalLoop=1;jettySize=auto;html=1;entryX=0.5;entryY=0;entryDx=0;entryDy=0;" parent="1" source="QvZKXtN4AoNPRNgKa_zs-4" target="NVmyvmoRvvZ_c8W7CN1m-122" edge="1">
          <mxGeometry relative="1" as="geometry" />
        </mxCell>
        <mxCell id="NVmyvmoRvvZ_c8W7CN1m-164" style="edgeStyle=orthogonalEdgeStyle;rounded=0;orthogonalLoop=1;jettySize=auto;html=1;entryX=0.5;entryY=0;entryDx=0;entryDy=0;" parent="1" source="QvZKXtN4AoNPRNgKa_zs-4" target="NVmyvmoRvvZ_c8W7CN1m-147" edge="1">
          <mxGeometry relative="1" as="geometry" />
        </mxCell>
        <mxCell id="NVmyvmoRvvZ_c8W7CN1m-166" style="edgeStyle=orthogonalEdgeStyle;rounded=0;orthogonalLoop=1;jettySize=auto;html=1;entryX=0.5;entryY=0;entryDx=0;entryDy=0;" parent="1" source="QvZKXtN4AoNPRNgKa_zs-4" target="NVmyvmoRvvZ_c8W7CN1m-165" edge="1">
          <mxGeometry relative="1" as="geometry" />
        </mxCell>
        <mxCell id="NVmyvmoRvvZ_c8W7CN1m-209" style="edgeStyle=orthogonalEdgeStyle;rounded=0;orthogonalLoop=1;jettySize=auto;html=1;entryX=0.5;entryY=0;entryDx=0;entryDy=0;" parent="1" source="QvZKXtN4AoNPRNgKa_zs-4" target="NVmyvmoRvvZ_c8W7CN1m-186" edge="1">
          <mxGeometry relative="1" as="geometry" />
        </mxCell>
        <mxCell id="NVmyvmoRvvZ_c8W7CN1m-258" style="edgeStyle=orthogonalEdgeStyle;rounded=0;orthogonalLoop=1;jettySize=auto;html=1;entryX=0.5;entryY=0;entryDx=0;entryDy=0;" parent="1" source="QvZKXtN4AoNPRNgKa_zs-4" target="NVmyvmoRvvZ_c8W7CN1m-210" edge="1">
          <mxGeometry relative="1" as="geometry" />
        </mxCell>
        <mxCell id="NVmyvmoRvvZ_c8W7CN1m-259" style="edgeStyle=orthogonalEdgeStyle;rounded=0;orthogonalLoop=1;jettySize=auto;html=1;entryX=0.5;entryY=0;entryDx=0;entryDy=0;" parent="1" source="QvZKXtN4AoNPRNgKa_zs-4" target="NVmyvmoRvvZ_c8W7CN1m-218" edge="1">
          <mxGeometry relative="1" as="geometry" />
        </mxCell>
        <mxCell id="NVmyvmoRvvZ_c8W7CN1m-260" style="edgeStyle=orthogonalEdgeStyle;rounded=0;orthogonalLoop=1;jettySize=auto;html=1;entryX=0.5;entryY=0;entryDx=0;entryDy=0;" parent="1" source="QvZKXtN4AoNPRNgKa_zs-4" target="NVmyvmoRvvZ_c8W7CN1m-225" edge="1">
          <mxGeometry relative="1" as="geometry" />
        </mxCell>
        <mxCell id="NVmyvmoRvvZ_c8W7CN1m-261" style="edgeStyle=orthogonalEdgeStyle;rounded=0;orthogonalLoop=1;jettySize=auto;html=1;entryX=0.5;entryY=0;entryDx=0;entryDy=0;" parent="1" source="QvZKXtN4AoNPRNgKa_zs-4" target="NVmyvmoRvvZ_c8W7CN1m-231" edge="1">
          <mxGeometry relative="1" as="geometry" />
        </mxCell>
        <mxCell id="NVmyvmoRvvZ_c8W7CN1m-262" style="edgeStyle=orthogonalEdgeStyle;rounded=0;orthogonalLoop=1;jettySize=auto;html=1;entryX=0.5;entryY=0;entryDx=0;entryDy=0;" parent="1" source="QvZKXtN4AoNPRNgKa_zs-4" target="NVmyvmoRvvZ_c8W7CN1m-237" edge="1">
          <mxGeometry relative="1" as="geometry" />
        </mxCell>
        <mxCell id="NVmyvmoRvvZ_c8W7CN1m-263" style="edgeStyle=orthogonalEdgeStyle;rounded=0;orthogonalLoop=1;jettySize=auto;html=1;entryX=0.5;entryY=0;entryDx=0;entryDy=0;" parent="1" source="QvZKXtN4AoNPRNgKa_zs-4" target="NVmyvmoRvvZ_c8W7CN1m-241" edge="1">
          <mxGeometry relative="1" as="geometry" />
        </mxCell>
        <mxCell id="QvZKXtN4AoNPRNgKa_zs-4" value="Data domain&lt;br&gt;(Dữ liệu chính)&amp;nbsp;" style="rounded=0;whiteSpace=wrap;html=1;" parent="1" vertex="1">
          <mxGeometry x="4760" y="160" width="120" height="60" as="geometry" />
        </mxCell>
        <mxCell id="QvZKXtN4AoNPRNgKa_zs-8" style="edgeStyle=orthogonalEdgeStyle;rounded=0;orthogonalLoop=1;jettySize=auto;html=1;entryX=0;entryY=0.5;entryDx=0;entryDy=0;" parent="1" source="QvZKXtN4AoNPRNgKa_zs-5" target="QvZKXtN4AoNPRNgKa_zs-7" edge="1">
          <mxGeometry relative="1" as="geometry" />
        </mxCell>
        <mxCell id="QvZKXtN4AoNPRNgKa_zs-10" style="edgeStyle=orthogonalEdgeStyle;rounded=0;orthogonalLoop=1;jettySize=auto;html=1;entryX=0;entryY=0.5;entryDx=0;entryDy=0;" parent="1" source="QvZKXtN4AoNPRNgKa_zs-5" target="QvZKXtN4AoNPRNgKa_zs-9" edge="1">
          <mxGeometry relative="1" as="geometry" />
        </mxCell>
        <mxCell id="QvZKXtN4AoNPRNgKa_zs-13" style="edgeStyle=orthogonalEdgeStyle;rounded=0;orthogonalLoop=1;jettySize=auto;html=1;entryX=0;entryY=0.5;entryDx=0;entryDy=0;" parent="1" source="QvZKXtN4AoNPRNgKa_zs-5" target="QvZKXtN4AoNPRNgKa_zs-11" edge="1">
          <mxGeometry relative="1" as="geometry" />
        </mxCell>
        <mxCell id="QvZKXtN4AoNPRNgKa_zs-14" style="edgeStyle=orthogonalEdgeStyle;rounded=0;orthogonalLoop=1;jettySize=auto;html=1;entryX=0;entryY=0.5;entryDx=0;entryDy=0;" parent="1" source="QvZKXtN4AoNPRNgKa_zs-5" target="QvZKXtN4AoNPRNgKa_zs-12" edge="1">
          <mxGeometry relative="1" as="geometry" />
        </mxCell>
        <mxCell id="QvZKXtN4AoNPRNgKa_zs-25" style="edgeStyle=orthogonalEdgeStyle;rounded=0;orthogonalLoop=1;jettySize=auto;html=1;entryX=0;entryY=0.5;entryDx=0;entryDy=0;" parent="1" source="QvZKXtN4AoNPRNgKa_zs-5" target="QvZKXtN4AoNPRNgKa_zs-15" edge="1">
          <mxGeometry relative="1" as="geometry" />
        </mxCell>
        <mxCell id="QvZKXtN4AoNPRNgKa_zs-26" style="edgeStyle=orthogonalEdgeStyle;rounded=0;orthogonalLoop=1;jettySize=auto;html=1;entryX=0;entryY=0.5;entryDx=0;entryDy=0;" parent="1" source="QvZKXtN4AoNPRNgKa_zs-5" target="QvZKXtN4AoNPRNgKa_zs-16" edge="1">
          <mxGeometry relative="1" as="geometry" />
        </mxCell>
        <mxCell id="QvZKXtN4AoNPRNgKa_zs-27" style="edgeStyle=orthogonalEdgeStyle;rounded=0;orthogonalLoop=1;jettySize=auto;html=1;entryX=0;entryY=0.5;entryDx=0;entryDy=0;" parent="1" source="QvZKXtN4AoNPRNgKa_zs-5" target="QvZKXtN4AoNPRNgKa_zs-17" edge="1">
          <mxGeometry relative="1" as="geometry" />
        </mxCell>
        <mxCell id="QvZKXtN4AoNPRNgKa_zs-28" style="edgeStyle=orthogonalEdgeStyle;rounded=0;orthogonalLoop=1;jettySize=auto;html=1;entryX=0;entryY=0.5;entryDx=0;entryDy=0;" parent="1" source="QvZKXtN4AoNPRNgKa_zs-5" target="QvZKXtN4AoNPRNgKa_zs-18" edge="1">
          <mxGeometry relative="1" as="geometry" />
        </mxCell>
        <mxCell id="QvZKXtN4AoNPRNgKa_zs-29" style="edgeStyle=orthogonalEdgeStyle;rounded=0;orthogonalLoop=1;jettySize=auto;html=1;entryX=0;entryY=0.5;entryDx=0;entryDy=0;" parent="1" source="QvZKXtN4AoNPRNgKa_zs-5" target="QvZKXtN4AoNPRNgKa_zs-19" edge="1">
          <mxGeometry relative="1" as="geometry" />
        </mxCell>
        <mxCell id="QvZKXtN4AoNPRNgKa_zs-30" style="edgeStyle=orthogonalEdgeStyle;rounded=0;orthogonalLoop=1;jettySize=auto;html=1;entryX=0;entryY=0.5;entryDx=0;entryDy=0;" parent="1" source="QvZKXtN4AoNPRNgKa_zs-5" target="QvZKXtN4AoNPRNgKa_zs-20" edge="1">
          <mxGeometry relative="1" as="geometry" />
        </mxCell>
        <mxCell id="QvZKXtN4AoNPRNgKa_zs-31" style="edgeStyle=orthogonalEdgeStyle;rounded=0;orthogonalLoop=1;jettySize=auto;html=1;entryX=0;entryY=0.5;entryDx=0;entryDy=0;" parent="1" source="QvZKXtN4AoNPRNgKa_zs-5" target="QvZKXtN4AoNPRNgKa_zs-21" edge="1">
          <mxGeometry relative="1" as="geometry" />
        </mxCell>
        <mxCell id="QvZKXtN4AoNPRNgKa_zs-32" style="edgeStyle=orthogonalEdgeStyle;rounded=0;orthogonalLoop=1;jettySize=auto;html=1;entryX=0;entryY=0.5;entryDx=0;entryDy=0;" parent="1" source="QvZKXtN4AoNPRNgKa_zs-5" target="QvZKXtN4AoNPRNgKa_zs-22" edge="1">
          <mxGeometry relative="1" as="geometry" />
        </mxCell>
        <mxCell id="QvZKXtN4AoNPRNgKa_zs-33" style="edgeStyle=orthogonalEdgeStyle;rounded=0;orthogonalLoop=1;jettySize=auto;html=1;entryX=0;entryY=0.5;entryDx=0;entryDy=0;" parent="1" source="QvZKXtN4AoNPRNgKa_zs-5" target="QvZKXtN4AoNPRNgKa_zs-23" edge="1">
          <mxGeometry relative="1" as="geometry" />
        </mxCell>
        <mxCell id="QvZKXtN4AoNPRNgKa_zs-34" style="edgeStyle=orthogonalEdgeStyle;rounded=0;orthogonalLoop=1;jettySize=auto;html=1;entryX=0;entryY=0.5;entryDx=0;entryDy=0;" parent="1" source="QvZKXtN4AoNPRNgKa_zs-5" target="QvZKXtN4AoNPRNgKa_zs-24" edge="1">
          <mxGeometry relative="1" as="geometry" />
        </mxCell>
        <mxCell id="QvZKXtN4AoNPRNgKa_zs-5" value="Customer/ khách hàng" style="rounded=0;whiteSpace=wrap;html=1;" parent="1" vertex="1">
          <mxGeometry x="-770" y="330" width="120" height="60" as="geometry" />
        </mxCell>
        <mxCell id="QvZKXtN4AoNPRNgKa_zs-7" value="Customer by Product&amp;nbsp;&lt;br&gt;(các sản phẩm khách hàng)" style="rounded=0;whiteSpace=wrap;html=1;fillColor=#f8cecc;strokeColor=#b85450;" parent="1" vertex="1">
          <mxGeometry x="-586" y="430" width="120" height="60" as="geometry" />
        </mxCell>
        <mxCell id="QvZKXtN4AoNPRNgKa_zs-9" value="Customer lifetime value by product&lt;br&gt;(Gia trị chọn đời của kh theo sản phẩm)" style="rounded=0;whiteSpace=wrap;html=1;" parent="1" vertex="1">
          <mxGeometry x="-586" y="520" width="120" height="60" as="geometry" />
        </mxCell>
        <mxCell id="QvZKXtN4AoNPRNgKa_zs-11" value="Customer life cycle&lt;br&gt;by product&lt;br&gt;(Vòng đời khách hàng theo sản phẩm)" style="rounded=0;whiteSpace=wrap;html=1;" parent="1" vertex="1">
          <mxGeometry x="-586" y="610" width="120" height="60" as="geometry" />
        </mxCell>
        <mxCell id="QvZKXtN4AoNPRNgKa_zs-12" value="Customer life cycle&lt;br&gt;(Vòng đời khách hàng )" style="rounded=0;whiteSpace=wrap;html=1;" parent="1" vertex="1">
          <mxGeometry x="-586" y="704.5" width="120" height="60" as="geometry" />
        </mxCell>
        <mxCell id="QvZKXtN4AoNPRNgKa_zs-15" value="Customer by sales&lt;br&gt;(khách hàng theo doanh số )" style="rounded=0;whiteSpace=wrap;html=1;fillColor=#fff2cc;strokeColor=#d6b656;" parent="1" vertex="1">
          <mxGeometry x="-586" y="800" width="120" height="60" as="geometry" />
        </mxCell>
        <mxCell id="QvZKXtN4AoNPRNgKa_zs-16" value="Customer by department&lt;br&gt;(khách hàng theo bộ phận )" style="rounded=0;whiteSpace=wrap;html=1;fillColor=#f8cecc;strokeColor=#b85450;" parent="1" vertex="1">
          <mxGeometry x="-586" y="900" width="120" height="60" as="geometry" />
        </mxCell>
        <mxCell id="QvZKXtN4AoNPRNgKa_zs-17" value="Customer by branch&lt;br&gt;(khách hàng theo chi nhánh )" style="rounded=0;whiteSpace=wrap;html=1;fillColor=#f8cecc;strokeColor=#b85450;" parent="1" vertex="1">
          <mxGeometry x="-586" y="990" width="120" height="60" as="geometry" />
        </mxCell>
        <mxCell id="QvZKXtN4AoNPRNgKa_zs-18" value="Customer by region&lt;br&gt;(khách hàng theo vùng )" style="rounded=0;whiteSpace=wrap;html=1;fillColor=#f8cecc;strokeColor=#b85450;" parent="1" vertex="1">
          <mxGeometry x="-586" y="1070" width="120" height="60" as="geometry" />
        </mxCell>
        <mxCell id="QvZKXtN4AoNPRNgKa_zs-19" value="Customer by division&lt;br&gt;(khách hàng theo bộ phận&amp;nbsp; )" style="rounded=0;whiteSpace=wrap;html=1;fillColor=#f8cecc;strokeColor=#b85450;" parent="1" vertex="1">
          <mxGeometry x="-586" y="1150" width="120" height="60" as="geometry" />
        </mxCell>
        <mxCell id="QvZKXtN4AoNPRNgKa_zs-20" value="Customer by team&lt;br&gt;(khách hàng theo đội )" style="rounded=0;whiteSpace=wrap;html=1;fillColor=#fff2cc;strokeColor=#d6b656;" parent="1" vertex="1">
          <mxGeometry x="-586" y="1229" width="120" height="60" as="geometry" />
        </mxCell>
        <mxCell id="QvZKXtN4AoNPRNgKa_zs-21" value="Customer by MKT campaign&lt;br&gt;(khách hàng theo chiển dịch MKT )" style="rounded=0;whiteSpace=wrap;html=1;fillColor=#fff2cc;strokeColor=#d6b656;" parent="1" vertex="1">
          <mxGeometry x="-586" y="1310" width="120" height="60" as="geometry" />
        </mxCell>
        <mxCell id="QvZKXtN4AoNPRNgKa_zs-22" value="Customer by product program&lt;br&gt;(khách hàng theo chương trình sản phẩm )" style="rounded=0;whiteSpace=wrap;html=1;fillColor=#f8cecc;strokeColor=#b85450;" parent="1" vertex="1">
          <mxGeometry x="-586" y="1400" width="120" height="80" as="geometry" />
        </mxCell>
        <mxCell id="QvZKXtN4AoNPRNgKa_zs-23" value="Customer by promotion&lt;br&gt;(khách hàng theo khuyến mãi )" style="rounded=0;whiteSpace=wrap;html=1;fillColor=#fff2cc;strokeColor=#d6b656;" parent="1" vertex="1">
          <mxGeometry x="-586" y="1510" width="120" height="60" as="geometry" />
        </mxCell>
        <mxCell id="QvZKXtN4AoNPRNgKa_zs-24" value="Customer by segment&lt;br&gt;(khách hàng theo phân khúc )" style="rounded=0;whiteSpace=wrap;html=1;fillColor=#fff2cc;strokeColor=#d6b656;" parent="1" vertex="1">
          <mxGeometry x="-586" y="1594" width="120" height="60" as="geometry" />
        </mxCell>
        <mxCell id="NVmyvmoRvvZ_c8W7CN1m-3" style="edgeStyle=orthogonalEdgeStyle;rounded=0;orthogonalLoop=1;jettySize=auto;html=1;entryX=0;entryY=0.5;entryDx=0;entryDy=0;" parent="1" source="QvZKXtN4AoNPRNgKa_zs-35" target="NVmyvmoRvvZ_c8W7CN1m-1" edge="1">
          <mxGeometry relative="1" as="geometry" />
        </mxCell>
        <mxCell id="NVmyvmoRvvZ_c8W7CN1m-4" style="edgeStyle=orthogonalEdgeStyle;rounded=0;orthogonalLoop=1;jettySize=auto;html=1;entryX=0;entryY=0.5;entryDx=0;entryDy=0;" parent="1" source="QvZKXtN4AoNPRNgKa_zs-35" target="NVmyvmoRvvZ_c8W7CN1m-2" edge="1">
          <mxGeometry relative="1" as="geometry" />
        </mxCell>
        <mxCell id="NVmyvmoRvvZ_c8W7CN1m-7" style="edgeStyle=orthogonalEdgeStyle;rounded=0;orthogonalLoop=1;jettySize=auto;html=1;entryX=0;entryY=0.5;entryDx=0;entryDy=0;" parent="1" source="QvZKXtN4AoNPRNgKa_zs-35" target="NVmyvmoRvvZ_c8W7CN1m-5" edge="1">
          <mxGeometry relative="1" as="geometry" />
        </mxCell>
        <mxCell id="NVmyvmoRvvZ_c8W7CN1m-8" style="edgeStyle=orthogonalEdgeStyle;rounded=0;orthogonalLoop=1;jettySize=auto;html=1;entryX=0;entryY=0.5;entryDx=0;entryDy=0;" parent="1" source="QvZKXtN4AoNPRNgKa_zs-35" target="NVmyvmoRvvZ_c8W7CN1m-6" edge="1">
          <mxGeometry relative="1" as="geometry" />
        </mxCell>
        <mxCell id="QvZKXtN4AoNPRNgKa_zs-35" value="PRODUCT&lt;br&gt;(sản phâm)" style="rounded=0;whiteSpace=wrap;html=1;" parent="1" vertex="1">
          <mxGeometry x="-300" y="330" width="120" height="60" as="geometry" />
        </mxCell>
        <mxCell id="NVmyvmoRvvZ_c8W7CN1m-1" value="Product by customer&lt;br&gt;(sản phẩm theo khách hàng )" style="rounded=0;whiteSpace=wrap;html=1;fillColor=#f8cecc;strokeColor=#b85450;" parent="1" vertex="1">
          <mxGeometry x="-90" y="420" width="120" height="70" as="geometry" />
        </mxCell>
        <mxCell id="NVmyvmoRvvZ_c8W7CN1m-2" value="Product by team&lt;br&gt;(sản phẩm theo đội )" style="rounded=0;whiteSpace=wrap;html=1;fillColor=#fff2cc;strokeColor=#d6b656;" parent="1" vertex="1">
          <mxGeometry x="-90" y="515" width="120" height="70" as="geometry" />
        </mxCell>
        <mxCell id="NVmyvmoRvvZ_c8W7CN1m-5" value="Product by sales&lt;br style=&quot;border-color: var(--border-color);&quot;&gt;(sản phẩm theo doanh số)" style="rounded=0;whiteSpace=wrap;html=1;fillColor=#fff2cc;strokeColor=#d6b656;" parent="1" vertex="1">
          <mxGeometry x="-90" y="610" width="120" height="60" as="geometry" />
        </mxCell>
        <mxCell id="NVmyvmoRvvZ_c8W7CN1m-6" value="Product by department&amp;nbsp;&lt;br style=&quot;border-color: var(--border-color);&quot;&gt;(sản phẩm theo bộ phận)" style="rounded=0;whiteSpace=wrap;html=1;fillColor=#f8cecc;strokeColor=#b85450;" parent="1" vertex="1">
          <mxGeometry x="-90" y="705" width="120" height="60" as="geometry" />
        </mxCell>
        <mxCell id="NVmyvmoRvvZ_c8W7CN1m-9" value="Product by branch&amp;nbsp;&lt;br style=&quot;border-color: var(--border-color);&quot;&gt;(sản phẩm theo chi nhánh)" style="rounded=0;whiteSpace=wrap;html=1;fillColor=#f8cecc;strokeColor=#b85450;" parent="1" vertex="1">
          <mxGeometry x="-90" y="800" width="120" height="60" as="geometry" />
        </mxCell>
        <mxCell id="NVmyvmoRvvZ_c8W7CN1m-10" value="Product by region&amp;nbsp;&lt;br style=&quot;border-color: var(--border-color);&quot;&gt;(sản phẩm theo vùng)" style="rounded=0;whiteSpace=wrap;html=1;fillColor=#f8cecc;strokeColor=#b85450;" parent="1" vertex="1">
          <mxGeometry x="-90" y="900" width="120" height="60" as="geometry" />
        </mxCell>
        <mxCell id="NVmyvmoRvvZ_c8W7CN1m-11" value="Product by channel&lt;br style=&quot;border-color: var(--border-color);&quot;&gt;(sản phẩm theo kênh)" style="rounded=0;whiteSpace=wrap;html=1;fillColor=#f8cecc;strokeColor=#b85450;" parent="1" vertex="1">
          <mxGeometry x="-90" y="990" width="120" height="60" as="geometry" />
        </mxCell>
        <mxCell id="NVmyvmoRvvZ_c8W7CN1m-12" value="Product by division&amp;nbsp;&lt;br style=&quot;border-color: var(--border-color);&quot;&gt;(sản phẩm theo bộ phận)" style="rounded=0;whiteSpace=wrap;html=1;fillColor=#f8cecc;strokeColor=#b85450;" parent="1" vertex="1">
          <mxGeometry x="-90" y="1070" width="120" height="60" as="geometry" />
        </mxCell>
        <mxCell id="NVmyvmoRvvZ_c8W7CN1m-13" value="Product cycle&lt;br style=&quot;border-color: var(--border-color);&quot;&gt;(vòng đời sản phẩm)" style="rounded=0;whiteSpace=wrap;html=1;" parent="1" vertex="1">
          <mxGeometry x="-90" y="1150" width="120" height="60" as="geometry" />
        </mxCell>
        <mxCell id="NVmyvmoRvvZ_c8W7CN1m-17" style="edgeStyle=orthogonalEdgeStyle;rounded=0;orthogonalLoop=1;jettySize=auto;html=1;entryX=0;entryY=0.5;entryDx=0;entryDy=0;" parent="1" source="NVmyvmoRvvZ_c8W7CN1m-14" target="NVmyvmoRvvZ_c8W7CN1m-16" edge="1">
          <mxGeometry relative="1" as="geometry" />
        </mxCell>
        <mxCell id="NVmyvmoRvvZ_c8W7CN1m-26" style="edgeStyle=orthogonalEdgeStyle;rounded=0;orthogonalLoop=1;jettySize=auto;html=1;entryX=0;entryY=0.5;entryDx=0;entryDy=0;" parent="1" source="NVmyvmoRvvZ_c8W7CN1m-14" target="NVmyvmoRvvZ_c8W7CN1m-18" edge="1">
          <mxGeometry relative="1" as="geometry" />
        </mxCell>
        <mxCell id="NVmyvmoRvvZ_c8W7CN1m-27" style="edgeStyle=orthogonalEdgeStyle;rounded=0;orthogonalLoop=1;jettySize=auto;html=1;entryX=0;entryY=0.5;entryDx=0;entryDy=0;" parent="1" source="NVmyvmoRvvZ_c8W7CN1m-14" target="NVmyvmoRvvZ_c8W7CN1m-19" edge="1">
          <mxGeometry relative="1" as="geometry" />
        </mxCell>
        <mxCell id="NVmyvmoRvvZ_c8W7CN1m-28" style="edgeStyle=orthogonalEdgeStyle;rounded=0;orthogonalLoop=1;jettySize=auto;html=1;entryX=0;entryY=0.5;entryDx=0;entryDy=0;" parent="1" source="NVmyvmoRvvZ_c8W7CN1m-14" target="NVmyvmoRvvZ_c8W7CN1m-20" edge="1">
          <mxGeometry relative="1" as="geometry" />
        </mxCell>
        <mxCell id="NVmyvmoRvvZ_c8W7CN1m-29" style="edgeStyle=orthogonalEdgeStyle;rounded=0;orthogonalLoop=1;jettySize=auto;html=1;entryX=0;entryY=0.5;entryDx=0;entryDy=0;" parent="1" source="NVmyvmoRvvZ_c8W7CN1m-14" target="NVmyvmoRvvZ_c8W7CN1m-21" edge="1">
          <mxGeometry relative="1" as="geometry" />
        </mxCell>
        <mxCell id="NVmyvmoRvvZ_c8W7CN1m-30" style="edgeStyle=orthogonalEdgeStyle;rounded=0;orthogonalLoop=1;jettySize=auto;html=1;entryX=0;entryY=0.5;entryDx=0;entryDy=0;" parent="1" source="NVmyvmoRvvZ_c8W7CN1m-14" target="NVmyvmoRvvZ_c8W7CN1m-22" edge="1">
          <mxGeometry relative="1" as="geometry" />
        </mxCell>
        <mxCell id="NVmyvmoRvvZ_c8W7CN1m-31" style="edgeStyle=orthogonalEdgeStyle;rounded=0;orthogonalLoop=1;jettySize=auto;html=1;entryX=0;entryY=0.5;entryDx=0;entryDy=0;" parent="1" source="NVmyvmoRvvZ_c8W7CN1m-14" target="NVmyvmoRvvZ_c8W7CN1m-23" edge="1">
          <mxGeometry relative="1" as="geometry" />
        </mxCell>
        <mxCell id="NVmyvmoRvvZ_c8W7CN1m-32" style="edgeStyle=orthogonalEdgeStyle;rounded=0;orthogonalLoop=1;jettySize=auto;html=1;entryX=0;entryY=0.5;entryDx=0;entryDy=0;" parent="1" source="NVmyvmoRvvZ_c8W7CN1m-14" target="NVmyvmoRvvZ_c8W7CN1m-24" edge="1">
          <mxGeometry relative="1" as="geometry" />
        </mxCell>
        <mxCell id="NVmyvmoRvvZ_c8W7CN1m-33" style="edgeStyle=orthogonalEdgeStyle;rounded=0;orthogonalLoop=1;jettySize=auto;html=1;entryX=0;entryY=0.5;entryDx=0;entryDy=0;" parent="1" source="NVmyvmoRvvZ_c8W7CN1m-14" target="NVmyvmoRvvZ_c8W7CN1m-25" edge="1">
          <mxGeometry relative="1" as="geometry" />
        </mxCell>
        <mxCell id="NVmyvmoRvvZ_c8W7CN1m-14" value="PRODUCT PROGRAM&lt;br&gt;(CHƯƠNG TRÌNH SẢN PHẨM)" style="rounded=0;whiteSpace=wrap;html=1;" parent="1" vertex="1">
          <mxGeometry x="200" y="330" width="120" height="60" as="geometry" />
        </mxCell>
        <mxCell id="NVmyvmoRvvZ_c8W7CN1m-16" value="Product program by customer&lt;br&gt;(Chương trình sản phẩm theo khách hàng)" style="rounded=0;whiteSpace=wrap;html=1;fillColor=#f8cecc;strokeColor=#b85450;" parent="1" vertex="1">
          <mxGeometry x="400" y="425" width="120" height="85" as="geometry" />
        </mxCell>
        <mxCell id="NVmyvmoRvvZ_c8W7CN1m-18" value="Product program by team&lt;br&gt;(Chương trình sản phẩm theo đội)" style="rounded=0;whiteSpace=wrap;html=1;fillColor=#fff2cc;strokeColor=#d6b656;" parent="1" vertex="1">
          <mxGeometry x="400" y="560" width="120" height="85" as="geometry" />
        </mxCell>
        <mxCell id="NVmyvmoRvvZ_c8W7CN1m-19" value="Product program by sales&lt;br&gt;(Chương trình sản phẩm theo doanh số)" style="rounded=0;whiteSpace=wrap;html=1;fillColor=#fff2cc;strokeColor=#d6b656;" parent="1" vertex="1">
          <mxGeometry x="400" y="692" width="120" height="85" as="geometry" />
        </mxCell>
        <mxCell id="NVmyvmoRvvZ_c8W7CN1m-20" value="Product program by department&lt;br&gt;(Chương trình sản phẩm theo bộ phận)" style="rounded=0;whiteSpace=wrap;html=1;fillColor=#f8cecc;strokeColor=#b85450;" parent="1" vertex="1">
          <mxGeometry x="400" y="810" width="120" height="85" as="geometry" />
        </mxCell>
        <mxCell id="NVmyvmoRvvZ_c8W7CN1m-21" value="Product program by branch&lt;br&gt;(Chương trình sản phẩm theo chi nhánh)" style="rounded=0;whiteSpace=wrap;html=1;fillColor=#f8cecc;strokeColor=#b85450;" parent="1" vertex="1">
          <mxGeometry x="400" y="920" width="120" height="85" as="geometry" />
        </mxCell>
        <mxCell id="NVmyvmoRvvZ_c8W7CN1m-22" value="Product program by channel&lt;br&gt;(Chương trình sản phẩm theo kênh)" style="rounded=0;whiteSpace=wrap;html=1;fillColor=#f8cecc;strokeColor=#b85450;" parent="1" vertex="1">
          <mxGeometry x="400" y="1030" width="120" height="85" as="geometry" />
        </mxCell>
        <mxCell id="NVmyvmoRvvZ_c8W7CN1m-23" value="Product program by region (Chương trình sản phẩm theo vùng)" style="rounded=0;whiteSpace=wrap;html=1;fillColor=#f8cecc;strokeColor=#b85450;" parent="1" vertex="1">
          <mxGeometry x="400" y="1137.5" width="120" height="85" as="geometry" />
        </mxCell>
        <mxCell id="NVmyvmoRvvZ_c8W7CN1m-24" value="Product program by division&amp;nbsp; (Chương trình sản phẩm theo bộ phận)" style="rounded=0;whiteSpace=wrap;html=1;fillColor=#f8cecc;strokeColor=#b85450;" parent="1" vertex="1">
          <mxGeometry x="400" y="1250" width="120" height="85" as="geometry" />
        </mxCell>
        <mxCell id="NVmyvmoRvvZ_c8W7CN1m-25" value="Product program cycle&amp;nbsp; (Chương trình sản phẩm theo vòng đời)" style="rounded=0;whiteSpace=wrap;html=1;" parent="1" vertex="1">
          <mxGeometry x="400" y="1360" width="120" height="85" as="geometry" />
        </mxCell>
        <mxCell id="NVmyvmoRvvZ_c8W7CN1m-39" style="edgeStyle=orthogonalEdgeStyle;rounded=0;orthogonalLoop=1;jettySize=auto;html=1;entryX=0;entryY=0.5;entryDx=0;entryDy=0;" parent="1" source="NVmyvmoRvvZ_c8W7CN1m-34" target="NVmyvmoRvvZ_c8W7CN1m-36" edge="1">
          <mxGeometry relative="1" as="geometry" />
        </mxCell>
        <mxCell id="NVmyvmoRvvZ_c8W7CN1m-40" style="edgeStyle=orthogonalEdgeStyle;rounded=0;orthogonalLoop=1;jettySize=auto;html=1;entryX=0;entryY=0.5;entryDx=0;entryDy=0;" parent="1" source="NVmyvmoRvvZ_c8W7CN1m-34" target="NVmyvmoRvvZ_c8W7CN1m-37" edge="1">
          <mxGeometry relative="1" as="geometry" />
        </mxCell>
        <mxCell id="NVmyvmoRvvZ_c8W7CN1m-41" style="edgeStyle=orthogonalEdgeStyle;rounded=0;orthogonalLoop=1;jettySize=auto;html=1;entryX=0;entryY=0.5;entryDx=0;entryDy=0;" parent="1" source="NVmyvmoRvvZ_c8W7CN1m-34" target="NVmyvmoRvvZ_c8W7CN1m-38" edge="1">
          <mxGeometry relative="1" as="geometry" />
        </mxCell>
        <mxCell id="NVmyvmoRvvZ_c8W7CN1m-34" value="Supply chain&lt;br&gt;(chuỗi cung ứng)" style="rounded=0;whiteSpace=wrap;html=1;" parent="1" vertex="1">
          <mxGeometry x="660" y="330" width="120" height="60" as="geometry" />
        </mxCell>
        <mxCell id="NVmyvmoRvvZ_c8W7CN1m-49" style="edgeStyle=orthogonalEdgeStyle;rounded=0;orthogonalLoop=1;jettySize=auto;html=1;entryX=0;entryY=0.5;entryDx=0;entryDy=0;" parent="1" source="NVmyvmoRvvZ_c8W7CN1m-36" target="NVmyvmoRvvZ_c8W7CN1m-42" edge="1">
          <mxGeometry relative="1" as="geometry" />
        </mxCell>
        <mxCell id="NVmyvmoRvvZ_c8W7CN1m-36" value="Supply chain by suppliers&lt;br&gt;(Chuỗi cung ứng của các nhà cung cấp&lt;br&gt;)" style="rounded=0;whiteSpace=wrap;html=1;" parent="1" vertex="1">
          <mxGeometry x="940" y="425" width="120" height="90" as="geometry" />
        </mxCell>
        <mxCell id="NVmyvmoRvvZ_c8W7CN1m-50" style="edgeStyle=orthogonalEdgeStyle;rounded=0;orthogonalLoop=1;jettySize=auto;html=1;entryX=0;entryY=0.5;entryDx=0;entryDy=0;" parent="1" source="NVmyvmoRvvZ_c8W7CN1m-37" target="NVmyvmoRvvZ_c8W7CN1m-42" edge="1">
          <mxGeometry relative="1" as="geometry">
            <Array as="points">
              <mxPoint x="1105" y="633" />
            </Array>
          </mxGeometry>
        </mxCell>
        <mxCell id="NVmyvmoRvvZ_c8W7CN1m-37" value="Supply chain by distributor&lt;br&gt;(Chuỗi cung ứng của các nhà phân phối&lt;br&gt;)" style="rounded=0;whiteSpace=wrap;html=1;" parent="1" vertex="1">
          <mxGeometry x="940" y="570" width="120" height="90" as="geometry" />
        </mxCell>
        <mxCell id="NVmyvmoRvvZ_c8W7CN1m-51" style="edgeStyle=orthogonalEdgeStyle;rounded=0;orthogonalLoop=1;jettySize=auto;html=1;entryX=0;entryY=0.5;entryDx=0;entryDy=0;" parent="1" source="NVmyvmoRvvZ_c8W7CN1m-38" target="NVmyvmoRvvZ_c8W7CN1m-42" edge="1">
          <mxGeometry relative="1" as="geometry" />
        </mxCell>
        <mxCell id="NVmyvmoRvvZ_c8W7CN1m-38" value="Supply chain by anchor&lt;br&gt;(Chuỗi cung ứng cố đinh &#39;mỏ neo&#39;&lt;br&gt;)" style="rounded=0;whiteSpace=wrap;html=1;" parent="1" vertex="1">
          <mxGeometry x="940" y="712" width="120" height="90" as="geometry" />
        </mxCell>
        <mxCell id="NVmyvmoRvvZ_c8W7CN1m-42" value="" style="rounded=0;whiteSpace=wrap;html=1;" parent="1" vertex="1">
          <mxGeometry x="1150" y="489.5" width="210" height="535" as="geometry" />
        </mxCell>
        <mxCell id="NVmyvmoRvvZ_c8W7CN1m-43" value="Supply chain by customer" style="rounded=0;whiteSpace=wrap;html=1;fillColor=#fff2cc;strokeColor=#d6b656;" parent="1" vertex="1">
          <mxGeometry x="1185" y="514.5" width="120" height="60" as="geometry" />
        </mxCell>
        <mxCell id="NVmyvmoRvvZ_c8W7CN1m-44" value="Supply chain by sales" style="rounded=0;whiteSpace=wrap;html=1;fillColor=#fff2cc;strokeColor=#d6b656;" parent="1" vertex="1">
          <mxGeometry x="1185" y="599.5" width="120" height="60" as="geometry" />
        </mxCell>
        <mxCell id="NVmyvmoRvvZ_c8W7CN1m-45" value="Supply chain by team" style="rounded=0;whiteSpace=wrap;html=1;fillColor=#fff2cc;strokeColor=#d6b656;" parent="1" vertex="1">
          <mxGeometry x="1185" y="689.5" width="120" height="60" as="geometry" />
        </mxCell>
        <mxCell id="NVmyvmoRvvZ_c8W7CN1m-46" value="Supply chain by depatments" style="rounded=0;whiteSpace=wrap;html=1;fillColor=#f8cecc;strokeColor=#b85450;" parent="1" vertex="1">
          <mxGeometry x="1185" y="776.5" width="120" height="60" as="geometry" />
        </mxCell>
        <mxCell id="NVmyvmoRvvZ_c8W7CN1m-47" value="Supply chain by branches" style="rounded=0;whiteSpace=wrap;html=1;fillColor=#f8cecc;strokeColor=#b85450;" parent="1" vertex="1">
          <mxGeometry x="1185" y="854.5" width="120" height="60" as="geometry" />
        </mxCell>
        <mxCell id="NVmyvmoRvvZ_c8W7CN1m-48" value="Supply chain by region" style="rounded=0;whiteSpace=wrap;html=1;fillColor=#f8cecc;strokeColor=#b85450;" parent="1" vertex="1">
          <mxGeometry x="1185" y="951.5" width="120" height="60" as="geometry" />
        </mxCell>
        <mxCell id="NVmyvmoRvvZ_c8W7CN1m-62" style="edgeStyle=orthogonalEdgeStyle;rounded=0;orthogonalLoop=1;jettySize=auto;html=1;entryX=0;entryY=0.5;entryDx=0;entryDy=0;" parent="1" source="NVmyvmoRvvZ_c8W7CN1m-52" target="NVmyvmoRvvZ_c8W7CN1m-54" edge="1">
          <mxGeometry relative="1" as="geometry" />
        </mxCell>
        <mxCell id="NVmyvmoRvvZ_c8W7CN1m-63" style="edgeStyle=orthogonalEdgeStyle;rounded=0;orthogonalLoop=1;jettySize=auto;html=1;entryX=0;entryY=0.5;entryDx=0;entryDy=0;" parent="1" source="NVmyvmoRvvZ_c8W7CN1m-52" target="NVmyvmoRvvZ_c8W7CN1m-55" edge="1">
          <mxGeometry relative="1" as="geometry" />
        </mxCell>
        <mxCell id="NVmyvmoRvvZ_c8W7CN1m-64" style="edgeStyle=orthogonalEdgeStyle;rounded=0;orthogonalLoop=1;jettySize=auto;html=1;entryX=0;entryY=0.5;entryDx=0;entryDy=0;" parent="1" source="NVmyvmoRvvZ_c8W7CN1m-52" target="NVmyvmoRvvZ_c8W7CN1m-56" edge="1">
          <mxGeometry relative="1" as="geometry" />
        </mxCell>
        <mxCell id="NVmyvmoRvvZ_c8W7CN1m-65" style="edgeStyle=orthogonalEdgeStyle;rounded=0;orthogonalLoop=1;jettySize=auto;html=1;entryX=0;entryY=0.5;entryDx=0;entryDy=0;" parent="1" source="NVmyvmoRvvZ_c8W7CN1m-52" target="NVmyvmoRvvZ_c8W7CN1m-57" edge="1">
          <mxGeometry relative="1" as="geometry" />
        </mxCell>
        <mxCell id="NVmyvmoRvvZ_c8W7CN1m-66" style="edgeStyle=orthogonalEdgeStyle;rounded=0;orthogonalLoop=1;jettySize=auto;html=1;entryX=0;entryY=0.5;entryDx=0;entryDy=0;" parent="1" source="NVmyvmoRvvZ_c8W7CN1m-52" target="NVmyvmoRvvZ_c8W7CN1m-58" edge="1">
          <mxGeometry relative="1" as="geometry" />
        </mxCell>
        <mxCell id="NVmyvmoRvvZ_c8W7CN1m-67" style="edgeStyle=orthogonalEdgeStyle;rounded=0;orthogonalLoop=1;jettySize=auto;html=1;entryX=0;entryY=0.5;entryDx=0;entryDy=0;" parent="1" source="NVmyvmoRvvZ_c8W7CN1m-52" target="NVmyvmoRvvZ_c8W7CN1m-59" edge="1">
          <mxGeometry relative="1" as="geometry" />
        </mxCell>
        <mxCell id="NVmyvmoRvvZ_c8W7CN1m-68" style="edgeStyle=orthogonalEdgeStyle;rounded=0;orthogonalLoop=1;jettySize=auto;html=1;entryX=0;entryY=0.5;entryDx=0;entryDy=0;" parent="1" source="NVmyvmoRvvZ_c8W7CN1m-52" target="NVmyvmoRvvZ_c8W7CN1m-60" edge="1">
          <mxGeometry relative="1" as="geometry" />
        </mxCell>
        <mxCell id="NVmyvmoRvvZ_c8W7CN1m-69" style="edgeStyle=orthogonalEdgeStyle;rounded=0;orthogonalLoop=1;jettySize=auto;html=1;entryX=0;entryY=0.5;entryDx=0;entryDy=0;" parent="1" source="NVmyvmoRvvZ_c8W7CN1m-52" target="NVmyvmoRvvZ_c8W7CN1m-61" edge="1">
          <mxGeometry relative="1" as="geometry">
            <mxPoint x="1620" y="1121.904761904762" as="targetPoint" />
          </mxGeometry>
        </mxCell>
        <mxCell id="NVmyvmoRvvZ_c8W7CN1m-52" value="Preferential program&lt;br&gt;(Chương trình ưu đãi)" style="rounded=0;whiteSpace=wrap;html=1;" parent="1" vertex="1">
          <mxGeometry x="1480" y="330" width="120" height="60" as="geometry" />
        </mxCell>
        <mxCell id="NVmyvmoRvvZ_c8W7CN1m-91" style="edgeStyle=orthogonalEdgeStyle;rounded=0;orthogonalLoop=1;jettySize=auto;html=1;entryX=0.005;entryY=0.445;entryDx=0;entryDy=0;entryPerimeter=0;" parent="1" source="NVmyvmoRvvZ_c8W7CN1m-54" target="NVmyvmoRvvZ_c8W7CN1m-70" edge="1">
          <mxGeometry relative="1" as="geometry" />
        </mxCell>
        <mxCell id="NVmyvmoRvvZ_c8W7CN1m-54" value="Preferential program&lt;br&gt;by customer&lt;br&gt;(Chương trình ưu đãi theo khách hàng)" style="rounded=0;whiteSpace=wrap;html=1;" parent="1" vertex="1">
          <mxGeometry x="1670" y="420" width="120" height="70" as="geometry" />
        </mxCell>
        <mxCell id="NVmyvmoRvvZ_c8W7CN1m-92" style="edgeStyle=orthogonalEdgeStyle;rounded=0;orthogonalLoop=1;jettySize=auto;html=1;entryX=-0.001;entryY=0.443;entryDx=0;entryDy=0;entryPerimeter=0;" parent="1" source="NVmyvmoRvvZ_c8W7CN1m-55" target="NVmyvmoRvvZ_c8W7CN1m-70" edge="1">
          <mxGeometry relative="1" as="geometry" />
        </mxCell>
        <mxCell id="NVmyvmoRvvZ_c8W7CN1m-55" value="Preferential program&lt;br&gt;by sales&lt;br&gt;(Chương trình ưu đãi theo khách hàng)" style="rounded=0;whiteSpace=wrap;html=1;" parent="1" vertex="1">
          <mxGeometry x="1670" y="515" width="120" height="70" as="geometry" />
        </mxCell>
        <mxCell id="NVmyvmoRvvZ_c8W7CN1m-56" value="Preferential program&lt;br&gt;by depatment&lt;br&gt;(Chương trình ưu đãi theo bộ phận)" style="rounded=0;whiteSpace=wrap;html=1;" parent="1" vertex="1">
          <mxGeometry x="1670" y="622" width="120" height="70" as="geometry" />
        </mxCell>
        <mxCell id="NVmyvmoRvvZ_c8W7CN1m-72" style="edgeStyle=orthogonalEdgeStyle;rounded=0;orthogonalLoop=1;jettySize=auto;html=1;entryX=-0.008;entryY=0.443;entryDx=0;entryDy=0;entryPerimeter=0;" parent="1" source="NVmyvmoRvvZ_c8W7CN1m-57" target="NVmyvmoRvvZ_c8W7CN1m-70" edge="1">
          <mxGeometry relative="1" as="geometry" />
        </mxCell>
        <mxCell id="NVmyvmoRvvZ_c8W7CN1m-57" value="Preferential program&lt;br&gt;by branch&lt;br&gt;(Chương trình ưu đãi theo chi nhánh)" style="rounded=0;whiteSpace=wrap;html=1;" parent="1" vertex="1">
          <mxGeometry x="1670" y="712" width="120" height="70" as="geometry" />
        </mxCell>
        <mxCell id="NVmyvmoRvvZ_c8W7CN1m-93" style="edgeStyle=orthogonalEdgeStyle;rounded=0;orthogonalLoop=1;jettySize=auto;html=1;entryX=0.021;entryY=0.443;entryDx=0;entryDy=0;entryPerimeter=0;" parent="1" source="NVmyvmoRvvZ_c8W7CN1m-58" target="NVmyvmoRvvZ_c8W7CN1m-70" edge="1">
          <mxGeometry relative="1" as="geometry" />
        </mxCell>
        <mxCell id="NVmyvmoRvvZ_c8W7CN1m-58" value="Preferential program&lt;br&gt;by region&lt;br&gt;(Chương trình ưu đãi theo vùng)" style="rounded=0;whiteSpace=wrap;html=1;" parent="1" vertex="1">
          <mxGeometry x="1670" y="810" width="120" height="70" as="geometry" />
        </mxCell>
        <mxCell id="NVmyvmoRvvZ_c8W7CN1m-94" style="edgeStyle=orthogonalEdgeStyle;rounded=0;orthogonalLoop=1;jettySize=auto;html=1;entryX=0.021;entryY=0.445;entryDx=0;entryDy=0;entryPerimeter=0;" parent="1" source="NVmyvmoRvvZ_c8W7CN1m-59" target="NVmyvmoRvvZ_c8W7CN1m-70" edge="1">
          <mxGeometry relative="1" as="geometry" />
        </mxCell>
        <mxCell id="NVmyvmoRvvZ_c8W7CN1m-59" value="Preferential program&lt;br&gt;by division&lt;br&gt;(Chương trình ưu đãi theo bộ phận)" style="rounded=0;whiteSpace=wrap;html=1;" parent="1" vertex="1">
          <mxGeometry x="1670" y="900" width="120" height="70" as="geometry" />
        </mxCell>
        <mxCell id="NVmyvmoRvvZ_c8W7CN1m-95" style="edgeStyle=orthogonalEdgeStyle;rounded=0;orthogonalLoop=1;jettySize=auto;html=1;entryX=0.021;entryY=0.445;entryDx=0;entryDy=0;entryPerimeter=0;" parent="1" source="NVmyvmoRvvZ_c8W7CN1m-60" target="NVmyvmoRvvZ_c8W7CN1m-70" edge="1">
          <mxGeometry relative="1" as="geometry" />
        </mxCell>
        <mxCell id="NVmyvmoRvvZ_c8W7CN1m-60" value="Preferential program&lt;br&gt;by channel&lt;br&gt;(Chương trình ưu đãi theo chương trình)" style="rounded=0;whiteSpace=wrap;html=1;" parent="1" vertex="1">
          <mxGeometry x="1670" y="1000" width="120" height="70" as="geometry" />
        </mxCell>
        <mxCell id="NVmyvmoRvvZ_c8W7CN1m-96" style="edgeStyle=orthogonalEdgeStyle;rounded=0;orthogonalLoop=1;jettySize=auto;html=1;entryX=0.014;entryY=0.445;entryDx=0;entryDy=0;entryPerimeter=0;" parent="1" source="NVmyvmoRvvZ_c8W7CN1m-61" target="NVmyvmoRvvZ_c8W7CN1m-70" edge="1">
          <mxGeometry relative="1" as="geometry" />
        </mxCell>
        <mxCell id="NVmyvmoRvvZ_c8W7CN1m-61" value="Customer cycle by&lt;br&gt;Preferential program&lt;br&gt;(Vòng đời khách hàng theo Chương trình ưu đãi )" style="rounded=0;whiteSpace=wrap;html=1;" parent="1" vertex="1">
          <mxGeometry x="1670" y="1099" width="120" height="70" as="geometry" />
        </mxCell>
        <mxCell id="NVmyvmoRvvZ_c8W7CN1m-70" value="The result payment of preferential program&lt;br&gt;(Kết quả chi trả của chương trình ưu đãi)" style="rounded=0;whiteSpace=wrap;html=1;" parent="1" vertex="1">
          <mxGeometry x="1880" y="420" width="120" height="735" as="geometry" />
        </mxCell>
        <mxCell id="NVmyvmoRvvZ_c8W7CN1m-75" style="edgeStyle=orthogonalEdgeStyle;rounded=0;orthogonalLoop=1;jettySize=auto;html=1;entryX=0;entryY=0.5;entryDx=0;entryDy=0;" parent="1" source="NVmyvmoRvvZ_c8W7CN1m-73" target="NVmyvmoRvvZ_c8W7CN1m-74" edge="1">
          <mxGeometry relative="1" as="geometry" />
        </mxCell>
        <mxCell id="NVmyvmoRvvZ_c8W7CN1m-80" style="edgeStyle=orthogonalEdgeStyle;rounded=0;orthogonalLoop=1;jettySize=auto;html=1;entryX=0;entryY=0.5;entryDx=0;entryDy=0;" parent="1" source="NVmyvmoRvvZ_c8W7CN1m-73" target="NVmyvmoRvvZ_c8W7CN1m-76" edge="1">
          <mxGeometry relative="1" as="geometry" />
        </mxCell>
        <mxCell id="NVmyvmoRvvZ_c8W7CN1m-81" style="edgeStyle=orthogonalEdgeStyle;rounded=0;orthogonalLoop=1;jettySize=auto;html=1;entryX=0;entryY=0.5;entryDx=0;entryDy=0;" parent="1" source="NVmyvmoRvvZ_c8W7CN1m-73" target="NVmyvmoRvvZ_c8W7CN1m-77" edge="1">
          <mxGeometry relative="1" as="geometry" />
        </mxCell>
        <mxCell id="NVmyvmoRvvZ_c8W7CN1m-82" style="edgeStyle=orthogonalEdgeStyle;rounded=0;orthogonalLoop=1;jettySize=auto;html=1;entryX=0;entryY=0.5;entryDx=0;entryDy=0;" parent="1" source="NVmyvmoRvvZ_c8W7CN1m-73" target="NVmyvmoRvvZ_c8W7CN1m-78" edge="1">
          <mxGeometry relative="1" as="geometry" />
        </mxCell>
        <mxCell id="NVmyvmoRvvZ_c8W7CN1m-83" style="edgeStyle=orthogonalEdgeStyle;rounded=0;orthogonalLoop=1;jettySize=auto;html=1;entryX=0;entryY=0.5;entryDx=0;entryDy=0;" parent="1" source="NVmyvmoRvvZ_c8W7CN1m-73" target="NVmyvmoRvvZ_c8W7CN1m-79" edge="1">
          <mxGeometry relative="1" as="geometry" />
        </mxCell>
        <mxCell id="NVmyvmoRvvZ_c8W7CN1m-73" value="Sales contest&lt;br&gt;(Cuộc thi bán hàng)" style="rounded=0;whiteSpace=wrap;html=1;" parent="1" vertex="1">
          <mxGeometry x="2090" y="330" width="120" height="60" as="geometry" />
        </mxCell>
        <mxCell id="NVmyvmoRvvZ_c8W7CN1m-87" style="edgeStyle=orthogonalEdgeStyle;rounded=0;orthogonalLoop=1;jettySize=auto;html=1;entryX=0;entryY=0.5;entryDx=0;entryDy=0;" parent="1" source="NVmyvmoRvvZ_c8W7CN1m-74" target="NVmyvmoRvvZ_c8W7CN1m-84" edge="1">
          <mxGeometry relative="1" as="geometry" />
        </mxCell>
        <mxCell id="NVmyvmoRvvZ_c8W7CN1m-74" value="Sales contest by customer" style="rounded=0;whiteSpace=wrap;html=1;" parent="1" vertex="1">
          <mxGeometry x="2300" y="425" width="120" height="60" as="geometry" />
        </mxCell>
        <mxCell id="NVmyvmoRvvZ_c8W7CN1m-86" style="edgeStyle=orthogonalEdgeStyle;rounded=0;orthogonalLoop=1;jettySize=auto;html=1;" parent="1" source="NVmyvmoRvvZ_c8W7CN1m-76" target="NVmyvmoRvvZ_c8W7CN1m-84" edge="1">
          <mxGeometry relative="1" as="geometry" />
        </mxCell>
        <mxCell id="NVmyvmoRvvZ_c8W7CN1m-76" value="Sales contest by sales" style="rounded=0;whiteSpace=wrap;html=1;" parent="1" vertex="1">
          <mxGeometry x="2300" y="520" width="120" height="60" as="geometry" />
        </mxCell>
        <mxCell id="NVmyvmoRvvZ_c8W7CN1m-90" style="edgeStyle=orthogonalEdgeStyle;rounded=0;orthogonalLoop=1;jettySize=auto;html=1;" parent="1" source="NVmyvmoRvvZ_c8W7CN1m-77" target="NVmyvmoRvvZ_c8W7CN1m-84" edge="1">
          <mxGeometry relative="1" as="geometry" />
        </mxCell>
        <mxCell id="NVmyvmoRvvZ_c8W7CN1m-77" value="Sales contest by channel" style="rounded=0;whiteSpace=wrap;html=1;" parent="1" vertex="1">
          <mxGeometry x="2300" y="620" width="120" height="60" as="geometry" />
        </mxCell>
        <mxCell id="NVmyvmoRvvZ_c8W7CN1m-88" style="edgeStyle=orthogonalEdgeStyle;rounded=0;orthogonalLoop=1;jettySize=auto;html=1;entryX=0;entryY=0.5;entryDx=0;entryDy=0;" parent="1" source="NVmyvmoRvvZ_c8W7CN1m-78" target="NVmyvmoRvvZ_c8W7CN1m-84" edge="1">
          <mxGeometry relative="1" as="geometry" />
        </mxCell>
        <mxCell id="NVmyvmoRvvZ_c8W7CN1m-78" value="Sales contest by branhes" style="rounded=0;whiteSpace=wrap;html=1;" parent="1" vertex="1">
          <mxGeometry x="2300" y="722" width="120" height="60" as="geometry" />
        </mxCell>
        <mxCell id="NVmyvmoRvvZ_c8W7CN1m-89" style="edgeStyle=orthogonalEdgeStyle;rounded=0;orthogonalLoop=1;jettySize=auto;html=1;entryX=0;entryY=0.5;entryDx=0;entryDy=0;" parent="1" source="NVmyvmoRvvZ_c8W7CN1m-79" target="NVmyvmoRvvZ_c8W7CN1m-84" edge="1">
          <mxGeometry relative="1" as="geometry" />
        </mxCell>
        <mxCell id="NVmyvmoRvvZ_c8W7CN1m-79" value="Sales contest by regoin" style="rounded=0;whiteSpace=wrap;html=1;" parent="1" vertex="1">
          <mxGeometry x="2300" y="810" width="120" height="60" as="geometry" />
        </mxCell>
        <mxCell id="NVmyvmoRvvZ_c8W7CN1m-84" value="The result payment of sales contest&lt;br&gt;(Kết quả chi trả của cuộc thi bán hàng)" style="rounded=0;whiteSpace=wrap;html=1;" parent="1" vertex="1">
          <mxGeometry x="2481" y="425" width="120" height="445" as="geometry" />
        </mxCell>
        <mxCell id="NVmyvmoRvvZ_c8W7CN1m-105" style="edgeStyle=orthogonalEdgeStyle;rounded=0;orthogonalLoop=1;jettySize=auto;html=1;entryX=0;entryY=0.5;entryDx=0;entryDy=0;" parent="1" source="NVmyvmoRvvZ_c8W7CN1m-99" target="NVmyvmoRvvZ_c8W7CN1m-101" edge="1">
          <mxGeometry relative="1" as="geometry" />
        </mxCell>
        <mxCell id="NVmyvmoRvvZ_c8W7CN1m-106" style="edgeStyle=orthogonalEdgeStyle;rounded=0;orthogonalLoop=1;jettySize=auto;html=1;entryX=0;entryY=0.5;entryDx=0;entryDy=0;" parent="1" source="NVmyvmoRvvZ_c8W7CN1m-99" target="NVmyvmoRvvZ_c8W7CN1m-102" edge="1">
          <mxGeometry relative="1" as="geometry" />
        </mxCell>
        <mxCell id="NVmyvmoRvvZ_c8W7CN1m-107" style="edgeStyle=orthogonalEdgeStyle;rounded=0;orthogonalLoop=1;jettySize=auto;html=1;entryX=0;entryY=0.5;entryDx=0;entryDy=0;" parent="1" source="NVmyvmoRvvZ_c8W7CN1m-99" target="NVmyvmoRvvZ_c8W7CN1m-103" edge="1">
          <mxGeometry relative="1" as="geometry" />
        </mxCell>
        <mxCell id="NVmyvmoRvvZ_c8W7CN1m-108" style="edgeStyle=orthogonalEdgeStyle;rounded=0;orthogonalLoop=1;jettySize=auto;html=1;entryX=0;entryY=0.5;entryDx=0;entryDy=0;" parent="1" source="NVmyvmoRvvZ_c8W7CN1m-99" target="NVmyvmoRvvZ_c8W7CN1m-104" edge="1">
          <mxGeometry relative="1" as="geometry" />
        </mxCell>
        <mxCell id="NVmyvmoRvvZ_c8W7CN1m-99" value="KPI &amp;amp; INCENTIVE&lt;br&gt;(kpi và Hoa hồng)" style="rounded=0;whiteSpace=wrap;html=1;" parent="1" vertex="1">
          <mxGeometry x="2710" y="330" width="120" height="60" as="geometry" />
        </mxCell>
        <mxCell id="NVmyvmoRvvZ_c8W7CN1m-101" value="KPI by sales" style="rounded=0;whiteSpace=wrap;html=1;" parent="1" vertex="1">
          <mxGeometry x="2900" y="425" width="120" height="60" as="geometry" />
        </mxCell>
        <mxCell id="NVmyvmoRvvZ_c8W7CN1m-102" value="KPI by center head" style="rounded=0;whiteSpace=wrap;html=1;" parent="1" vertex="1">
          <mxGeometry x="2901" y="520" width="120" height="60" as="geometry" />
        </mxCell>
        <mxCell id="NVmyvmoRvvZ_c8W7CN1m-103" value="incentive by sales" style="rounded=0;whiteSpace=wrap;html=1;" parent="1" vertex="1">
          <mxGeometry x="2901" y="632" width="120" height="60" as="geometry" />
        </mxCell>
        <mxCell id="NVmyvmoRvvZ_c8W7CN1m-104" value="incentive by center header" style="rounded=0;whiteSpace=wrap;html=1;" parent="1" vertex="1">
          <mxGeometry x="2901" y="727" width="120" height="60" as="geometry" />
        </mxCell>
        <mxCell id="NVmyvmoRvvZ_c8W7CN1m-109" value="The result payment ò kpi &amp;amp; Incentive" style="rounded=0;whiteSpace=wrap;html=1;" parent="1" vertex="1">
          <mxGeometry x="3080" y="425" width="120" height="365" as="geometry" />
        </mxCell>
        <mxCell id="NVmyvmoRvvZ_c8W7CN1m-117" style="edgeStyle=orthogonalEdgeStyle;rounded=0;orthogonalLoop=1;jettySize=auto;html=1;entryX=0;entryY=0.5;entryDx=0;entryDy=0;" parent="1" source="NVmyvmoRvvZ_c8W7CN1m-110" target="NVmyvmoRvvZ_c8W7CN1m-116" edge="1">
          <mxGeometry relative="1" as="geometry" />
        </mxCell>
        <mxCell id="NVmyvmoRvvZ_c8W7CN1m-118" style="edgeStyle=orthogonalEdgeStyle;rounded=0;orthogonalLoop=1;jettySize=auto;html=1;entryX=0;entryY=0.5;entryDx=0;entryDy=0;" parent="1" source="NVmyvmoRvvZ_c8W7CN1m-110" target="NVmyvmoRvvZ_c8W7CN1m-115" edge="1">
          <mxGeometry relative="1" as="geometry" />
        </mxCell>
        <mxCell id="NVmyvmoRvvZ_c8W7CN1m-119" style="edgeStyle=orthogonalEdgeStyle;rounded=0;orthogonalLoop=1;jettySize=auto;html=1;entryX=0;entryY=0.5;entryDx=0;entryDy=0;" parent="1" source="NVmyvmoRvvZ_c8W7CN1m-110" target="NVmyvmoRvvZ_c8W7CN1m-114" edge="1">
          <mxGeometry relative="1" as="geometry" />
        </mxCell>
        <mxCell id="NVmyvmoRvvZ_c8W7CN1m-120" style="edgeStyle=orthogonalEdgeStyle;rounded=0;orthogonalLoop=1;jettySize=auto;html=1;entryX=0;entryY=0.5;entryDx=0;entryDy=0;" parent="1" source="NVmyvmoRvvZ_c8W7CN1m-110" target="NVmyvmoRvvZ_c8W7CN1m-113" edge="1">
          <mxGeometry relative="1" as="geometry" />
        </mxCell>
        <mxCell id="NVmyvmoRvvZ_c8W7CN1m-121" style="edgeStyle=orthogonalEdgeStyle;rounded=0;orthogonalLoop=1;jettySize=auto;html=1;entryX=0;entryY=0.5;entryDx=0;entryDy=0;" parent="1" source="NVmyvmoRvvZ_c8W7CN1m-110" target="NVmyvmoRvvZ_c8W7CN1m-112" edge="1">
          <mxGeometry relative="1" as="geometry" />
        </mxCell>
        <mxCell id="NVmyvmoRvvZ_c8W7CN1m-110" value="KPI &amp;amp; planning&lt;br&gt;(kpi và kế hoạch)" style="rounded=0;whiteSpace=wrap;html=1;fillColor=#f8cecc;strokeColor=#b85450;" parent="1" vertex="1">
          <mxGeometry x="3270" y="330" width="120" height="60" as="geometry" />
        </mxCell>
        <mxCell id="NVmyvmoRvvZ_c8W7CN1m-112" value="KPI - division" style="rounded=0;whiteSpace=wrap;html=1;fillColor=#f8cecc;strokeColor=#b85450;" parent="1" vertex="1">
          <mxGeometry x="3440" y="425" width="120" height="60" as="geometry" />
        </mxCell>
        <mxCell id="NVmyvmoRvvZ_c8W7CN1m-113" value="KPI - region" style="rounded=0;whiteSpace=wrap;html=1;fillColor=#f8cecc;strokeColor=#b85450;" parent="1" vertex="1">
          <mxGeometry x="3440" y="520" width="120" height="60" as="geometry" />
        </mxCell>
        <mxCell id="NVmyvmoRvvZ_c8W7CN1m-114" value="KPI - center" style="rounded=0;whiteSpace=wrap;html=1;fillColor=#f8cecc;strokeColor=#b85450;" parent="1" vertex="1">
          <mxGeometry x="3440" y="627" width="120" height="60" as="geometry" />
        </mxCell>
        <mxCell id="NVmyvmoRvvZ_c8W7CN1m-115" value="KPI - segment" style="rounded=0;whiteSpace=wrap;html=1;fillColor=#f8cecc;strokeColor=#b85450;" parent="1" vertex="1">
          <mxGeometry x="3440" y="730" width="120" height="60" as="geometry" />
        </mxCell>
        <mxCell id="NVmyvmoRvvZ_c8W7CN1m-116" value="KPI - sales" style="rounded=0;whiteSpace=wrap;html=1;fillColor=#f8cecc;strokeColor=#b85450;" parent="1" vertex="1">
          <mxGeometry x="3440" y="830" width="120" height="60" as="geometry" />
        </mxCell>
        <mxCell id="NVmyvmoRvvZ_c8W7CN1m-125" style="edgeStyle=orthogonalEdgeStyle;rounded=0;orthogonalLoop=1;jettySize=auto;html=1;entryX=0;entryY=0.5;entryDx=0;entryDy=0;" parent="1" source="NVmyvmoRvvZ_c8W7CN1m-122" target="NVmyvmoRvvZ_c8W7CN1m-123" edge="1">
          <mxGeometry relative="1" as="geometry" />
        </mxCell>
        <mxCell id="NVmyvmoRvvZ_c8W7CN1m-126" style="edgeStyle=orthogonalEdgeStyle;rounded=0;orthogonalLoop=1;jettySize=auto;html=1;entryX=0;entryY=0.5;entryDx=0;entryDy=0;" parent="1" source="NVmyvmoRvvZ_c8W7CN1m-122" target="NVmyvmoRvvZ_c8W7CN1m-124" edge="1">
          <mxGeometry relative="1" as="geometry" />
        </mxCell>
        <mxCell id="NVmyvmoRvvZ_c8W7CN1m-122" value="Marketing campaign&lt;br&gt;(chiến dịch quảng cáo)" style="rounded=0;whiteSpace=wrap;html=1;" parent="1" vertex="1">
          <mxGeometry x="3690" y="330" width="120" height="60" as="geometry" />
        </mxCell>
        <mxCell id="NVmyvmoRvvZ_c8W7CN1m-143" style="edgeStyle=orthogonalEdgeStyle;rounded=0;orthogonalLoop=1;jettySize=auto;html=1;entryX=0;entryY=0.25;entryDx=0;entryDy=0;" parent="1" source="NVmyvmoRvvZ_c8W7CN1m-123" target="NVmyvmoRvvZ_c8W7CN1m-127" edge="1">
          <mxGeometry relative="1" as="geometry" />
        </mxCell>
        <mxCell id="NVmyvmoRvvZ_c8W7CN1m-123" value="Marketing brand&lt;br&gt;(thương hiệu quảng cáo)" style="rounded=0;whiteSpace=wrap;html=1;" parent="1" vertex="1">
          <mxGeometry x="3860" y="425" width="120" height="60" as="geometry" />
        </mxCell>
        <mxCell id="NVmyvmoRvvZ_c8W7CN1m-144" style="edgeStyle=orthogonalEdgeStyle;rounded=0;orthogonalLoop=1;jettySize=auto;html=1;entryX=0;entryY=0.25;entryDx=0;entryDy=0;" parent="1" source="NVmyvmoRvvZ_c8W7CN1m-124" target="NVmyvmoRvvZ_c8W7CN1m-127" edge="1">
          <mxGeometry relative="1" as="geometry" />
        </mxCell>
        <mxCell id="NVmyvmoRvvZ_c8W7CN1m-124" value="Marketing product&lt;br&gt;(quảng cáo sản phẩm)" style="rounded=0;whiteSpace=wrap;html=1;" parent="1" vertex="1">
          <mxGeometry x="3860" y="585" width="120" height="60" as="geometry" />
        </mxCell>
        <mxCell id="NVmyvmoRvvZ_c8W7CN1m-145" style="edgeStyle=orthogonalEdgeStyle;rounded=0;orthogonalLoop=1;jettySize=auto;html=1;entryX=0;entryY=0.5;entryDx=0;entryDy=0;" parent="1" source="NVmyvmoRvvZ_c8W7CN1m-127" target="NVmyvmoRvvZ_c8W7CN1m-135" edge="1">
          <mxGeometry relative="1" as="geometry" />
        </mxCell>
        <mxCell id="NVmyvmoRvvZ_c8W7CN1m-127" value="" style="rounded=0;whiteSpace=wrap;html=1;" parent="1" vertex="1">
          <mxGeometry x="4040" y="415" width="170" height="655" as="geometry" />
        </mxCell>
        <mxCell id="NVmyvmoRvvZ_c8W7CN1m-128" value="Lead" style="rounded=0;whiteSpace=wrap;html=1;" parent="1" vertex="1">
          <mxGeometry x="4065" y="437.5" width="120" height="60" as="geometry" />
        </mxCell>
        <mxCell id="NVmyvmoRvvZ_c8W7CN1m-129" value="new customer" style="rounded=0;whiteSpace=wrap;html=1;" parent="1" vertex="1">
          <mxGeometry x="4065" y="525" width="120" height="60" as="geometry" />
        </mxCell>
        <mxCell id="NVmyvmoRvvZ_c8W7CN1m-130" value="customer by product" style="rounded=0;whiteSpace=wrap;html=1;" parent="1" vertex="1">
          <mxGeometry x="4065" y="610" width="120" height="60" as="geometry" />
        </mxCell>
        <mxCell id="NVmyvmoRvvZ_c8W7CN1m-131" value="conversation rate&lt;br&gt;(tỷ lệ chuyển đổi)" style="rounded=0;whiteSpace=wrap;html=1;" parent="1" vertex="1">
          <mxGeometry x="4065" y="705" width="120" height="60" as="geometry" />
        </mxCell>
        <mxCell id="NVmyvmoRvvZ_c8W7CN1m-132" value="ROI" style="rounded=0;whiteSpace=wrap;html=1;" parent="1" vertex="1">
          <mxGeometry x="4065" y="787" width="120" height="60" as="geometry" />
        </mxCell>
        <mxCell id="NVmyvmoRvvZ_c8W7CN1m-133" value="TOI" style="rounded=0;whiteSpace=wrap;html=1;" parent="1" vertex="1">
          <mxGeometry x="4065" y="870" width="120" height="60" as="geometry" />
        </mxCell>
        <mxCell id="NVmyvmoRvvZ_c8W7CN1m-134" value="cost" style="rounded=0;whiteSpace=wrap;html=1;" parent="1" vertex="1">
          <mxGeometry x="4065" y="960" width="120" height="60" as="geometry" />
        </mxCell>
        <mxCell id="NVmyvmoRvvZ_c8W7CN1m-135" value="" style="rounded=0;whiteSpace=wrap;html=1;" parent="1" vertex="1">
          <mxGeometry x="4260" y="415" width="170" height="655" as="geometry" />
        </mxCell>
        <mxCell id="NVmyvmoRvvZ_c8W7CN1m-136" value="By sales" style="rounded=0;whiteSpace=wrap;html=1;" parent="1" vertex="1">
          <mxGeometry x="4285" y="437.5" width="120" height="60" as="geometry" />
        </mxCell>
        <mxCell id="NVmyvmoRvvZ_c8W7CN1m-137" value="by depatment" style="rounded=0;whiteSpace=wrap;html=1;" parent="1" vertex="1">
          <mxGeometry x="4285" y="525" width="120" height="60" as="geometry" />
        </mxCell>
        <mxCell id="NVmyvmoRvvZ_c8W7CN1m-138" value="by center" style="rounded=0;whiteSpace=wrap;html=1;" parent="1" vertex="1">
          <mxGeometry x="4285" y="610" width="120" height="60" as="geometry" />
        </mxCell>
        <mxCell id="NVmyvmoRvvZ_c8W7CN1m-139" value="by region" style="rounded=0;whiteSpace=wrap;html=1;" parent="1" vertex="1">
          <mxGeometry x="4285" y="705" width="120" height="60" as="geometry" />
        </mxCell>
        <mxCell id="NVmyvmoRvvZ_c8W7CN1m-140" value="by channel" style="rounded=0;whiteSpace=wrap;html=1;" parent="1" vertex="1">
          <mxGeometry x="4285" y="787" width="120" height="60" as="geometry" />
        </mxCell>
        <mxCell id="NVmyvmoRvvZ_c8W7CN1m-141" value="by division" style="rounded=0;whiteSpace=wrap;html=1;" parent="1" vertex="1">
          <mxGeometry x="4285" y="870" width="120" height="60" as="geometry" />
        </mxCell>
        <mxCell id="NVmyvmoRvvZ_c8W7CN1m-156" style="edgeStyle=orthogonalEdgeStyle;rounded=0;orthogonalLoop=1;jettySize=auto;html=1;entryX=0;entryY=0.5;entryDx=0;entryDy=0;" parent="1" source="NVmyvmoRvvZ_c8W7CN1m-147" target="NVmyvmoRvvZ_c8W7CN1m-148" edge="1">
          <mxGeometry relative="1" as="geometry" />
        </mxCell>
        <mxCell id="NVmyvmoRvvZ_c8W7CN1m-157" style="edgeStyle=orthogonalEdgeStyle;rounded=0;orthogonalLoop=1;jettySize=auto;html=1;entryX=0;entryY=0.5;entryDx=0;entryDy=0;" parent="1" source="NVmyvmoRvvZ_c8W7CN1m-147" target="NVmyvmoRvvZ_c8W7CN1m-149" edge="1">
          <mxGeometry relative="1" as="geometry" />
        </mxCell>
        <mxCell id="NVmyvmoRvvZ_c8W7CN1m-158" style="edgeStyle=orthogonalEdgeStyle;rounded=0;orthogonalLoop=1;jettySize=auto;html=1;entryX=0;entryY=0.5;entryDx=0;entryDy=0;" parent="1" source="NVmyvmoRvvZ_c8W7CN1m-147" target="NVmyvmoRvvZ_c8W7CN1m-150" edge="1">
          <mxGeometry relative="1" as="geometry" />
        </mxCell>
        <mxCell id="NVmyvmoRvvZ_c8W7CN1m-159" style="edgeStyle=orthogonalEdgeStyle;rounded=0;orthogonalLoop=1;jettySize=auto;html=1;entryX=0;entryY=0.5;entryDx=0;entryDy=0;" parent="1" source="NVmyvmoRvvZ_c8W7CN1m-147" target="NVmyvmoRvvZ_c8W7CN1m-151" edge="1">
          <mxGeometry relative="1" as="geometry" />
        </mxCell>
        <mxCell id="NVmyvmoRvvZ_c8W7CN1m-160" style="edgeStyle=orthogonalEdgeStyle;rounded=0;orthogonalLoop=1;jettySize=auto;html=1;entryX=0;entryY=0.5;entryDx=0;entryDy=0;" parent="1" source="NVmyvmoRvvZ_c8W7CN1m-147" target="NVmyvmoRvvZ_c8W7CN1m-152" edge="1">
          <mxGeometry relative="1" as="geometry" />
        </mxCell>
        <mxCell id="NVmyvmoRvvZ_c8W7CN1m-161" style="edgeStyle=orthogonalEdgeStyle;rounded=0;orthogonalLoop=1;jettySize=auto;html=1;entryX=0;entryY=0.5;entryDx=0;entryDy=0;" parent="1" source="NVmyvmoRvvZ_c8W7CN1m-147" target="NVmyvmoRvvZ_c8W7CN1m-153" edge="1">
          <mxGeometry relative="1" as="geometry" />
        </mxCell>
        <mxCell id="NVmyvmoRvvZ_c8W7CN1m-162" style="edgeStyle=orthogonalEdgeStyle;rounded=0;orthogonalLoop=1;jettySize=auto;html=1;entryX=0;entryY=0.5;entryDx=0;entryDy=0;" parent="1" source="NVmyvmoRvvZ_c8W7CN1m-147" target="NVmyvmoRvvZ_c8W7CN1m-154" edge="1">
          <mxGeometry relative="1" as="geometry" />
        </mxCell>
        <mxCell id="NVmyvmoRvvZ_c8W7CN1m-163" style="edgeStyle=orthogonalEdgeStyle;rounded=0;orthogonalLoop=1;jettySize=auto;html=1;entryX=0;entryY=0.5;entryDx=0;entryDy=0;" parent="1" source="NVmyvmoRvvZ_c8W7CN1m-147" target="NVmyvmoRvvZ_c8W7CN1m-155" edge="1">
          <mxGeometry relative="1" as="geometry" />
        </mxCell>
        <mxCell id="NVmyvmoRvvZ_c8W7CN1m-147" value="export &amp;amp; import customer" style="rounded=0;whiteSpace=wrap;html=1;" parent="1" vertex="1">
          <mxGeometry x="4510" y="330" width="120" height="60" as="geometry" />
        </mxCell>
        <mxCell id="NVmyvmoRvvZ_c8W7CN1m-148" value="By customer" style="rounded=0;whiteSpace=wrap;html=1;" parent="1" vertex="1">
          <mxGeometry x="4720" y="425" width="120" height="60" as="geometry" />
        </mxCell>
        <mxCell id="NVmyvmoRvvZ_c8W7CN1m-149" value="By sales" style="rounded=0;whiteSpace=wrap;html=1;" parent="1" vertex="1">
          <mxGeometry x="4720" y="520" width="120" height="60" as="geometry" />
        </mxCell>
        <mxCell id="NVmyvmoRvvZ_c8W7CN1m-150" value="By depatment" style="rounded=0;whiteSpace=wrap;html=1;" parent="1" vertex="1">
          <mxGeometry x="4720" y="620" width="120" height="60" as="geometry" />
        </mxCell>
        <mxCell id="NVmyvmoRvvZ_c8W7CN1m-151" value="By center" style="rounded=0;whiteSpace=wrap;html=1;" parent="1" vertex="1">
          <mxGeometry x="4720" y="712" width="120" height="60" as="geometry" />
        </mxCell>
        <mxCell id="NVmyvmoRvvZ_c8W7CN1m-152" value="By customer" style="rounded=0;whiteSpace=wrap;html=1;" parent="1" vertex="1">
          <mxGeometry x="4720" y="800" width="120" height="60" as="geometry" />
        </mxCell>
        <mxCell id="NVmyvmoRvvZ_c8W7CN1m-153" value="By region" style="rounded=0;whiteSpace=wrap;html=1;" parent="1" vertex="1">
          <mxGeometry x="4720" y="895" width="120" height="60" as="geometry" />
        </mxCell>
        <mxCell id="NVmyvmoRvvZ_c8W7CN1m-154" value="By channel" style="rounded=0;whiteSpace=wrap;html=1;" parent="1" vertex="1">
          <mxGeometry x="4720" y="1000" width="120" height="60" as="geometry" />
        </mxCell>
        <mxCell id="NVmyvmoRvvZ_c8W7CN1m-155" value="By division" style="rounded=0;whiteSpace=wrap;html=1;" parent="1" vertex="1">
          <mxGeometry x="4720" y="1099" width="120" height="60" as="geometry" />
        </mxCell>
        <mxCell id="NVmyvmoRvvZ_c8W7CN1m-171" style="edgeStyle=orthogonalEdgeStyle;rounded=0;orthogonalLoop=1;jettySize=auto;html=1;entryX=0;entryY=0.5;entryDx=0;entryDy=0;" parent="1" source="NVmyvmoRvvZ_c8W7CN1m-165" target="NVmyvmoRvvZ_c8W7CN1m-167" edge="1">
          <mxGeometry relative="1" as="geometry" />
        </mxCell>
        <mxCell id="NVmyvmoRvvZ_c8W7CN1m-178" style="edgeStyle=orthogonalEdgeStyle;rounded=0;orthogonalLoop=1;jettySize=auto;html=1;entryX=0;entryY=0.5;entryDx=0;entryDy=0;" parent="1" source="NVmyvmoRvvZ_c8W7CN1m-165" target="NVmyvmoRvvZ_c8W7CN1m-168" edge="1">
          <mxGeometry relative="1" as="geometry" />
        </mxCell>
        <mxCell id="NVmyvmoRvvZ_c8W7CN1m-179" style="edgeStyle=orthogonalEdgeStyle;rounded=0;orthogonalLoop=1;jettySize=auto;html=1;entryX=0;entryY=0.5;entryDx=0;entryDy=0;" parent="1" source="NVmyvmoRvvZ_c8W7CN1m-165" target="NVmyvmoRvvZ_c8W7CN1m-169" edge="1">
          <mxGeometry relative="1" as="geometry" />
        </mxCell>
        <mxCell id="NVmyvmoRvvZ_c8W7CN1m-180" style="edgeStyle=orthogonalEdgeStyle;rounded=0;orthogonalLoop=1;jettySize=auto;html=1;entryX=0;entryY=0.5;entryDx=0;entryDy=0;" parent="1" source="NVmyvmoRvvZ_c8W7CN1m-165" target="NVmyvmoRvvZ_c8W7CN1m-172" edge="1">
          <mxGeometry relative="1" as="geometry" />
        </mxCell>
        <mxCell id="NVmyvmoRvvZ_c8W7CN1m-181" style="edgeStyle=orthogonalEdgeStyle;rounded=0;orthogonalLoop=1;jettySize=auto;html=1;entryX=0;entryY=0.5;entryDx=0;entryDy=0;" parent="1" source="NVmyvmoRvvZ_c8W7CN1m-165" target="NVmyvmoRvvZ_c8W7CN1m-173" edge="1">
          <mxGeometry relative="1" as="geometry" />
        </mxCell>
        <mxCell id="NVmyvmoRvvZ_c8W7CN1m-182" style="edgeStyle=orthogonalEdgeStyle;rounded=0;orthogonalLoop=1;jettySize=auto;html=1;entryX=0;entryY=0.5;entryDx=0;entryDy=0;" parent="1" source="NVmyvmoRvvZ_c8W7CN1m-165" target="NVmyvmoRvvZ_c8W7CN1m-174" edge="1">
          <mxGeometry relative="1" as="geometry" />
        </mxCell>
        <mxCell id="NVmyvmoRvvZ_c8W7CN1m-183" style="edgeStyle=orthogonalEdgeStyle;rounded=0;orthogonalLoop=1;jettySize=auto;html=1;entryX=0;entryY=0.5;entryDx=0;entryDy=0;" parent="1" source="NVmyvmoRvvZ_c8W7CN1m-165" target="NVmyvmoRvvZ_c8W7CN1m-175" edge="1">
          <mxGeometry relative="1" as="geometry" />
        </mxCell>
        <mxCell id="NVmyvmoRvvZ_c8W7CN1m-184" style="edgeStyle=orthogonalEdgeStyle;rounded=0;orthogonalLoop=1;jettySize=auto;html=1;entryX=0;entryY=0.5;entryDx=0;entryDy=0;" parent="1" source="NVmyvmoRvvZ_c8W7CN1m-165" target="NVmyvmoRvvZ_c8W7CN1m-176" edge="1">
          <mxGeometry relative="1" as="geometry" />
        </mxCell>
        <mxCell id="NVmyvmoRvvZ_c8W7CN1m-185" style="edgeStyle=orthogonalEdgeStyle;rounded=0;orthogonalLoop=1;jettySize=auto;html=1;entryX=0;entryY=0.5;entryDx=0;entryDy=0;" parent="1" source="NVmyvmoRvvZ_c8W7CN1m-165" target="NVmyvmoRvvZ_c8W7CN1m-177" edge="1">
          <mxGeometry relative="1" as="geometry" />
        </mxCell>
        <mxCell id="NVmyvmoRvvZ_c8W7CN1m-165" value="APPLICATION&lt;br&gt;(ỨNG DỤNG)" style="rounded=0;whiteSpace=wrap;html=1;fillColor=#fff2cc;strokeColor=#d6b656;" parent="1" vertex="1">
          <mxGeometry x="4980" y="330" width="120" height="60" as="geometry" />
        </mxCell>
        <mxCell id="NVmyvmoRvvZ_c8W7CN1m-167" value="by processing unit&lt;br&gt;(theo đơn vị xử lý)" style="rounded=0;whiteSpace=wrap;html=1;" parent="1" vertex="1">
          <mxGeometry x="5180" y="425" width="120" height="60" as="geometry" />
        </mxCell>
        <mxCell id="NVmyvmoRvvZ_c8W7CN1m-168" value="by application&lt;br&gt;(theo ứng dụng)" style="rounded=0;whiteSpace=wrap;html=1;" parent="1" vertex="1">
          <mxGeometry x="5180" y="520" width="120" height="60" as="geometry" />
        </mxCell>
        <mxCell id="NVmyvmoRvvZ_c8W7CN1m-169" value="by customer" style="rounded=0;whiteSpace=wrap;html=1;" parent="1" vertex="1">
          <mxGeometry x="5180" y="620" width="120" height="60" as="geometry" />
        </mxCell>
        <mxCell id="NVmyvmoRvvZ_c8W7CN1m-172" value="by sales" style="rounded=0;whiteSpace=wrap;html=1;" parent="1" vertex="1">
          <mxGeometry x="5180" y="712" width="120" height="60" as="geometry" />
        </mxCell>
        <mxCell id="NVmyvmoRvvZ_c8W7CN1m-173" value="by depatment" style="rounded=0;whiteSpace=wrap;html=1;" parent="1" vertex="1">
          <mxGeometry x="5180" y="800" width="120" height="60" as="geometry" />
        </mxCell>
        <mxCell id="NVmyvmoRvvZ_c8W7CN1m-174" value="by center" style="rounded=0;whiteSpace=wrap;html=1;" parent="1" vertex="1">
          <mxGeometry x="5180" y="890" width="120" height="60" as="geometry" />
        </mxCell>
        <mxCell id="NVmyvmoRvvZ_c8W7CN1m-175" value="by region" style="rounded=0;whiteSpace=wrap;html=1;" parent="1" vertex="1">
          <mxGeometry x="5180" y="990" width="120" height="60" as="geometry" />
        </mxCell>
        <mxCell id="NVmyvmoRvvZ_c8W7CN1m-176" value="by channel" style="rounded=0;whiteSpace=wrap;html=1;" parent="1" vertex="1">
          <mxGeometry x="5180" y="1099" width="120" height="60" as="geometry" />
        </mxCell>
        <mxCell id="NVmyvmoRvvZ_c8W7CN1m-177" value="by division" style="rounded=0;whiteSpace=wrap;html=1;" parent="1" vertex="1">
          <mxGeometry x="5180" y="1200" width="120" height="60" as="geometry" />
        </mxCell>
        <mxCell id="NVmyvmoRvvZ_c8W7CN1m-198" style="edgeStyle=orthogonalEdgeStyle;rounded=0;orthogonalLoop=1;jettySize=auto;html=1;entryX=0;entryY=0.5;entryDx=0;entryDy=0;" parent="1" source="NVmyvmoRvvZ_c8W7CN1m-186" target="NVmyvmoRvvZ_c8W7CN1m-187" edge="1">
          <mxGeometry relative="1" as="geometry" />
        </mxCell>
        <mxCell id="NVmyvmoRvvZ_c8W7CN1m-199" style="edgeStyle=orthogonalEdgeStyle;rounded=0;orthogonalLoop=1;jettySize=auto;html=1;entryX=0;entryY=0.5;entryDx=0;entryDy=0;" parent="1" source="NVmyvmoRvvZ_c8W7CN1m-186" target="NVmyvmoRvvZ_c8W7CN1m-188" edge="1">
          <mxGeometry relative="1" as="geometry" />
        </mxCell>
        <mxCell id="NVmyvmoRvvZ_c8W7CN1m-200" style="edgeStyle=orthogonalEdgeStyle;rounded=0;orthogonalLoop=1;jettySize=auto;html=1;entryX=0;entryY=0.5;entryDx=0;entryDy=0;" parent="1" source="NVmyvmoRvvZ_c8W7CN1m-186" target="NVmyvmoRvvZ_c8W7CN1m-189" edge="1">
          <mxGeometry relative="1" as="geometry" />
        </mxCell>
        <mxCell id="NVmyvmoRvvZ_c8W7CN1m-201" style="edgeStyle=orthogonalEdgeStyle;rounded=0;orthogonalLoop=1;jettySize=auto;html=1;entryX=0;entryY=0.5;entryDx=0;entryDy=0;" parent="1" source="NVmyvmoRvvZ_c8W7CN1m-186" target="NVmyvmoRvvZ_c8W7CN1m-190" edge="1">
          <mxGeometry relative="1" as="geometry" />
        </mxCell>
        <mxCell id="NVmyvmoRvvZ_c8W7CN1m-202" style="edgeStyle=orthogonalEdgeStyle;rounded=0;orthogonalLoop=1;jettySize=auto;html=1;entryX=0;entryY=0.5;entryDx=0;entryDy=0;" parent="1" source="NVmyvmoRvvZ_c8W7CN1m-186" target="NVmyvmoRvvZ_c8W7CN1m-191" edge="1">
          <mxGeometry relative="1" as="geometry" />
        </mxCell>
        <mxCell id="NVmyvmoRvvZ_c8W7CN1m-203" style="edgeStyle=orthogonalEdgeStyle;rounded=0;orthogonalLoop=1;jettySize=auto;html=1;entryX=0;entryY=0.5;entryDx=0;entryDy=0;" parent="1" source="NVmyvmoRvvZ_c8W7CN1m-186" target="NVmyvmoRvvZ_c8W7CN1m-197" edge="1">
          <mxGeometry relative="1" as="geometry" />
        </mxCell>
        <mxCell id="NVmyvmoRvvZ_c8W7CN1m-204" style="edgeStyle=orthogonalEdgeStyle;rounded=0;orthogonalLoop=1;jettySize=auto;html=1;entryX=0;entryY=0.5;entryDx=0;entryDy=0;" parent="1" source="NVmyvmoRvvZ_c8W7CN1m-186" target="NVmyvmoRvvZ_c8W7CN1m-196" edge="1">
          <mxGeometry relative="1" as="geometry" />
        </mxCell>
        <mxCell id="NVmyvmoRvvZ_c8W7CN1m-205" style="edgeStyle=orthogonalEdgeStyle;rounded=0;orthogonalLoop=1;jettySize=auto;html=1;entryX=0;entryY=0.5;entryDx=0;entryDy=0;" parent="1" source="NVmyvmoRvvZ_c8W7CN1m-186" target="NVmyvmoRvvZ_c8W7CN1m-195" edge="1">
          <mxGeometry relative="1" as="geometry" />
        </mxCell>
        <mxCell id="NVmyvmoRvvZ_c8W7CN1m-206" style="edgeStyle=orthogonalEdgeStyle;rounded=0;orthogonalLoop=1;jettySize=auto;html=1;entryX=0;entryY=0.5;entryDx=0;entryDy=0;" parent="1" source="NVmyvmoRvvZ_c8W7CN1m-186" target="NVmyvmoRvvZ_c8W7CN1m-194" edge="1">
          <mxGeometry relative="1" as="geometry" />
        </mxCell>
        <mxCell id="NVmyvmoRvvZ_c8W7CN1m-207" style="edgeStyle=orthogonalEdgeStyle;rounded=0;orthogonalLoop=1;jettySize=auto;html=1;entryX=0;entryY=0.5;entryDx=0;entryDy=0;" parent="1" source="NVmyvmoRvvZ_c8W7CN1m-186" target="NVmyvmoRvvZ_c8W7CN1m-193" edge="1">
          <mxGeometry relative="1" as="geometry" />
        </mxCell>
        <mxCell id="NVmyvmoRvvZ_c8W7CN1m-208" style="edgeStyle=orthogonalEdgeStyle;rounded=0;orthogonalLoop=1;jettySize=auto;html=1;entryX=0;entryY=0.5;entryDx=0;entryDy=0;" parent="1" source="NVmyvmoRvvZ_c8W7CN1m-186" target="NVmyvmoRvvZ_c8W7CN1m-192" edge="1">
          <mxGeometry relative="1" as="geometry" />
        </mxCell>
        <mxCell id="NVmyvmoRvvZ_c8W7CN1m-186" value="Transation" style="rounded=0;whiteSpace=wrap;html=1;fillColor=#fff2cc;strokeColor=#d6b656;" parent="1" vertex="1">
          <mxGeometry x="5440" y="330" width="120" height="60" as="geometry" />
        </mxCell>
        <mxCell id="NVmyvmoRvvZ_c8W7CN1m-187" value="By product type" style="rounded=0;whiteSpace=wrap;html=1;" parent="1" vertex="1">
          <mxGeometry x="5630" y="425" width="120" height="60" as="geometry" />
        </mxCell>
        <mxCell id="NVmyvmoRvvZ_c8W7CN1m-188" value="by transation type" style="rounded=0;whiteSpace=wrap;html=1;" parent="1" vertex="1">
          <mxGeometry x="5630" y="514.5" width="120" height="60" as="geometry" />
        </mxCell>
        <mxCell id="NVmyvmoRvvZ_c8W7CN1m-189" value="by transation channel(ATM/CDM&lt;br&gt;/online/couter)" style="rounded=0;whiteSpace=wrap;html=1;" parent="1" vertex="1">
          <mxGeometry x="5630" y="617.5" width="120" height="82.5" as="geometry" />
        </mxCell>
        <mxCell id="NVmyvmoRvvZ_c8W7CN1m-190" value="by customer" style="rounded=0;whiteSpace=wrap;html=1;" parent="1" vertex="1">
          <mxGeometry x="5630" y="712.5" width="120" height="60" as="geometry" />
        </mxCell>
        <mxCell id="NVmyvmoRvvZ_c8W7CN1m-191" value="by sales" style="rounded=0;whiteSpace=wrap;html=1;" parent="1" vertex="1">
          <mxGeometry x="5630" y="802" width="120" height="60" as="geometry" />
        </mxCell>
        <mxCell id="NVmyvmoRvvZ_c8W7CN1m-192" value="by team" style="rounded=0;whiteSpace=wrap;html=1;" parent="1" vertex="1">
          <mxGeometry x="5630" y="891.5" width="120" height="60" as="geometry" />
        </mxCell>
        <mxCell id="NVmyvmoRvvZ_c8W7CN1m-193" value="by depatment" style="rounded=0;whiteSpace=wrap;html=1;" parent="1" vertex="1">
          <mxGeometry x="5630" y="990" width="120" height="60" as="geometry" />
        </mxCell>
        <mxCell id="NVmyvmoRvvZ_c8W7CN1m-194" value="by center" style="rounded=0;whiteSpace=wrap;html=1;" parent="1" vertex="1">
          <mxGeometry x="5630" y="1090" width="120" height="60" as="geometry" />
        </mxCell>
        <mxCell id="NVmyvmoRvvZ_c8W7CN1m-195" value="by region" style="rounded=0;whiteSpace=wrap;html=1;" parent="1" vertex="1">
          <mxGeometry x="5630" y="1200" width="120" height="60" as="geometry" />
        </mxCell>
        <mxCell id="NVmyvmoRvvZ_c8W7CN1m-196" value="by channel" style="rounded=0;whiteSpace=wrap;html=1;" parent="1" vertex="1">
          <mxGeometry x="5630" y="1310" width="120" height="60" as="geometry" />
        </mxCell>
        <mxCell id="NVmyvmoRvvZ_c8W7CN1m-197" value="by division" style="rounded=0;whiteSpace=wrap;html=1;" parent="1" vertex="1">
          <mxGeometry x="5630" y="1410" width="120" height="60" as="geometry" />
        </mxCell>
        <mxCell id="NVmyvmoRvvZ_c8W7CN1m-217" style="edgeStyle=orthogonalEdgeStyle;rounded=0;orthogonalLoop=1;jettySize=auto;html=1;entryX=0;entryY=0.5;entryDx=0;entryDy=0;" parent="1" source="NVmyvmoRvvZ_c8W7CN1m-210" target="NVmyvmoRvvZ_c8W7CN1m-211" edge="1">
          <mxGeometry relative="1" as="geometry">
            <Array as="points">
              <mxPoint x="6000" y="360" />
              <mxPoint x="6000" y="455" />
            </Array>
          </mxGeometry>
        </mxCell>
        <mxCell id="NVmyvmoRvvZ_c8W7CN1m-252" style="edgeStyle=orthogonalEdgeStyle;rounded=0;orthogonalLoop=1;jettySize=auto;html=1;entryX=0;entryY=0.5;entryDx=0;entryDy=0;" parent="1" source="NVmyvmoRvvZ_c8W7CN1m-210" target="NVmyvmoRvvZ_c8W7CN1m-214" edge="1">
          <mxGeometry relative="1" as="geometry" />
        </mxCell>
        <mxCell id="NVmyvmoRvvZ_c8W7CN1m-253" style="edgeStyle=orthogonalEdgeStyle;rounded=0;orthogonalLoop=1;jettySize=auto;html=1;entryX=0;entryY=0.5;entryDx=0;entryDy=0;" parent="1" source="NVmyvmoRvvZ_c8W7CN1m-210" target="NVmyvmoRvvZ_c8W7CN1m-215" edge="1">
          <mxGeometry relative="1" as="geometry" />
        </mxCell>
        <mxCell id="NVmyvmoRvvZ_c8W7CN1m-254" style="edgeStyle=orthogonalEdgeStyle;rounded=0;orthogonalLoop=1;jettySize=auto;html=1;entryX=0;entryY=0.5;entryDx=0;entryDy=0;" parent="1" source="NVmyvmoRvvZ_c8W7CN1m-210" target="NVmyvmoRvvZ_c8W7CN1m-216" edge="1">
          <mxGeometry relative="1" as="geometry">
            <Array as="points">
              <mxPoint x="6000" y="360" />
              <mxPoint x="6000" y="1007" />
            </Array>
          </mxGeometry>
        </mxCell>
        <mxCell id="NVmyvmoRvvZ_c8W7CN1m-255" style="edgeStyle=orthogonalEdgeStyle;rounded=0;orthogonalLoop=1;jettySize=auto;html=1;entryX=0;entryY=0.5;entryDx=0;entryDy=0;" parent="1" source="NVmyvmoRvvZ_c8W7CN1m-210" target="NVmyvmoRvvZ_c8W7CN1m-212" edge="1">
          <mxGeometry relative="1" as="geometry">
            <Array as="points">
              <mxPoint x="6000" y="360" />
              <mxPoint x="6000" y="550" />
            </Array>
          </mxGeometry>
        </mxCell>
        <mxCell id="NVmyvmoRvvZ_c8W7CN1m-256" style="edgeStyle=orthogonalEdgeStyle;rounded=0;orthogonalLoop=1;jettySize=auto;html=1;entryX=0;entryY=0.5;entryDx=0;entryDy=0;" parent="1" source="NVmyvmoRvvZ_c8W7CN1m-210" target="NVmyvmoRvvZ_c8W7CN1m-213" edge="1">
          <mxGeometry relative="1" as="geometry">
            <Array as="points">
              <mxPoint x="6000" y="360" />
              <mxPoint x="6000" y="652" />
            </Array>
          </mxGeometry>
        </mxCell>
        <mxCell id="NVmyvmoRvvZ_c8W7CN1m-210" value="LEAD" style="rounded=0;whiteSpace=wrap;html=1;fillColor=#fff2cc;strokeColor=#d6b656;" parent="1" vertex="1">
          <mxGeometry x="5840" y="330" width="120" height="60" as="geometry" />
        </mxCell>
        <mxCell id="NVmyvmoRvvZ_c8W7CN1m-211" value="By LEAD SOURCES" style="rounded=0;whiteSpace=wrap;html=1;" parent="1" vertex="1">
          <mxGeometry x="6050" y="425" width="120" height="60" as="geometry" />
        </mxCell>
        <mxCell id="NVmyvmoRvvZ_c8W7CN1m-212" value="By HO DEPATMENT" style="rounded=0;whiteSpace=wrap;html=1;" parent="1" vertex="1">
          <mxGeometry x="6050" y="520" width="120" height="60" as="geometry" />
        </mxCell>
        <mxCell id="NVmyvmoRvvZ_c8W7CN1m-213" value="By EDA" style="rounded=0;whiteSpace=wrap;html=1;" parent="1" vertex="1">
          <mxGeometry x="6050" y="622" width="120" height="60" as="geometry" />
        </mxCell>
        <mxCell id="NVmyvmoRvvZ_c8W7CN1m-214" value="By NEW CUSTOMER/EXITSTING CUSTOMER" style="rounded=0;whiteSpace=wrap;html=1;" parent="1" vertex="1">
          <mxGeometry x="6040" y="717" width="140" height="93" as="geometry" />
        </mxCell>
        <mxCell id="NVmyvmoRvvZ_c8W7CN1m-215" value="By CROSS-SELL/UP-SELL" style="rounded=0;whiteSpace=wrap;html=1;" parent="1" vertex="1">
          <mxGeometry x="6040" y="837" width="140" height="93" as="geometry" />
        </mxCell>
        <mxCell id="NVmyvmoRvvZ_c8W7CN1m-216" value="By CHANNEL acquiring (digital mkt/ telesales/google)" style="rounded=0;whiteSpace=wrap;html=1;" parent="1" vertex="1">
          <mxGeometry x="6040" y="960" width="140" height="93" as="geometry" />
        </mxCell>
        <mxCell id="NVmyvmoRvvZ_c8W7CN1m-224" style="edgeStyle=orthogonalEdgeStyle;rounded=0;orthogonalLoop=1;jettySize=auto;html=1;entryX=0;entryY=0.5;entryDx=0;entryDy=0;" parent="1" source="NVmyvmoRvvZ_c8W7CN1m-218" target="NVmyvmoRvvZ_c8W7CN1m-219" edge="1">
          <mxGeometry relative="1" as="geometry" />
        </mxCell>
        <mxCell id="NVmyvmoRvvZ_c8W7CN1m-264" style="edgeStyle=orthogonalEdgeStyle;rounded=0;orthogonalLoop=1;jettySize=auto;html=1;entryX=0;entryY=0.5;entryDx=0;entryDy=0;" parent="1" source="NVmyvmoRvvZ_c8W7CN1m-218" target="NVmyvmoRvvZ_c8W7CN1m-220" edge="1">
          <mxGeometry relative="1" as="geometry" />
        </mxCell>
        <mxCell id="NVmyvmoRvvZ_c8W7CN1m-265" style="edgeStyle=orthogonalEdgeStyle;rounded=0;orthogonalLoop=1;jettySize=auto;html=1;entryX=0;entryY=0.5;entryDx=0;entryDy=0;" parent="1" source="NVmyvmoRvvZ_c8W7CN1m-218" target="NVmyvmoRvvZ_c8W7CN1m-221" edge="1">
          <mxGeometry relative="1" as="geometry" />
        </mxCell>
        <mxCell id="NVmyvmoRvvZ_c8W7CN1m-266" style="edgeStyle=orthogonalEdgeStyle;rounded=0;orthogonalLoop=1;jettySize=auto;html=1;entryX=0;entryY=0.5;entryDx=0;entryDy=0;" parent="1" source="NVmyvmoRvvZ_c8W7CN1m-218" target="NVmyvmoRvvZ_c8W7CN1m-222" edge="1">
          <mxGeometry relative="1" as="geometry" />
        </mxCell>
        <mxCell id="NVmyvmoRvvZ_c8W7CN1m-267" style="edgeStyle=orthogonalEdgeStyle;rounded=0;orthogonalLoop=1;jettySize=auto;html=1;entryX=0;entryY=0.5;entryDx=0;entryDy=0;" parent="1" source="NVmyvmoRvvZ_c8W7CN1m-218" target="NVmyvmoRvvZ_c8W7CN1m-223" edge="1">
          <mxGeometry relative="1" as="geometry" />
        </mxCell>
        <mxCell id="NVmyvmoRvvZ_c8W7CN1m-218" value="SALES PRODUCTIVITY&lt;br&gt;(năng suất bán hàng)" style="rounded=0;whiteSpace=wrap;html=1;fillColor=#fff2cc;strokeColor=#d6b656;" parent="1" vertex="1">
          <mxGeometry x="6270" y="330" width="120" height="60" as="geometry" />
        </mxCell>
        <mxCell id="NVmyvmoRvvZ_c8W7CN1m-219" value="By product" style="rounded=0;whiteSpace=wrap;html=1;fillColor=#fff2cc;strokeColor=#d6b656;" parent="1" vertex="1">
          <mxGeometry x="6490" y="425" width="120" height="60" as="geometry" />
        </mxCell>
        <mxCell id="NVmyvmoRvvZ_c8W7CN1m-220" value="By product program" style="rounded=0;whiteSpace=wrap;html=1;fillColor=#fff2cc;strokeColor=#d6b656;" parent="1" vertex="1">
          <mxGeometry x="6490" y="520" width="120" height="60" as="geometry" />
        </mxCell>
        <mxCell id="NVmyvmoRvvZ_c8W7CN1m-221" value="by sales contest" style="rounded=0;whiteSpace=wrap;html=1;" parent="1" vertex="1">
          <mxGeometry x="6490" y="622" width="120" height="60" as="geometry" />
        </mxCell>
        <mxCell id="NVmyvmoRvvZ_c8W7CN1m-222" value="by MKT" style="rounded=0;whiteSpace=wrap;html=1;" parent="1" vertex="1">
          <mxGeometry x="6490" y="727" width="120" height="60" as="geometry" />
        </mxCell>
        <mxCell id="NVmyvmoRvvZ_c8W7CN1m-223" value="by kpi" style="rounded=0;whiteSpace=wrap;html=1;" parent="1" vertex="1">
          <mxGeometry x="6490" y="847" width="120" height="60" as="geometry" />
        </mxCell>
        <mxCell id="NVmyvmoRvvZ_c8W7CN1m-228" style="edgeStyle=orthogonalEdgeStyle;rounded=0;orthogonalLoop=1;jettySize=auto;html=1;entryX=0;entryY=0.5;entryDx=0;entryDy=0;" parent="1" source="NVmyvmoRvvZ_c8W7CN1m-225" target="NVmyvmoRvvZ_c8W7CN1m-226" edge="1">
          <mxGeometry relative="1" as="geometry" />
        </mxCell>
        <mxCell id="NVmyvmoRvvZ_c8W7CN1m-230" style="edgeStyle=orthogonalEdgeStyle;rounded=0;orthogonalLoop=1;jettySize=auto;html=1;entryX=0;entryY=0.5;entryDx=0;entryDy=0;" parent="1" source="NVmyvmoRvvZ_c8W7CN1m-225" target="NVmyvmoRvvZ_c8W7CN1m-227" edge="1">
          <mxGeometry relative="1" as="geometry" />
        </mxCell>
        <mxCell id="NVmyvmoRvvZ_c8W7CN1m-225" value="Account loading&amp;nbsp;" style="rounded=0;whiteSpace=wrap;html=1;fillColor=#fff2cc;strokeColor=#d6b656;" parent="1" vertex="1">
          <mxGeometry x="6750" y="330" width="120" height="60" as="geometry" />
        </mxCell>
        <mxCell id="NVmyvmoRvvZ_c8W7CN1m-226" value="By product" style="rounded=0;whiteSpace=wrap;html=1;" parent="1" vertex="1">
          <mxGeometry x="6940" y="437.5" width="120" height="60" as="geometry" />
        </mxCell>
        <mxCell id="NVmyvmoRvvZ_c8W7CN1m-227" value="By product program" style="rounded=0;whiteSpace=wrap;html=1;" parent="1" vertex="1">
          <mxGeometry x="6940" y="577.5" width="120" height="60" as="geometry" />
        </mxCell>
        <mxCell id="NVmyvmoRvvZ_c8W7CN1m-236" style="edgeStyle=orthogonalEdgeStyle;rounded=0;orthogonalLoop=1;jettySize=auto;html=1;entryX=0;entryY=0.5;entryDx=0;entryDy=0;" parent="1" source="NVmyvmoRvvZ_c8W7CN1m-231" target="NVmyvmoRvvZ_c8W7CN1m-232" edge="1">
          <mxGeometry relative="1" as="geometry" />
        </mxCell>
        <mxCell id="NVmyvmoRvvZ_c8W7CN1m-268" style="edgeStyle=orthogonalEdgeStyle;rounded=0;orthogonalLoop=1;jettySize=auto;html=1;entryX=0;entryY=0.5;entryDx=0;entryDy=0;" parent="1" source="NVmyvmoRvvZ_c8W7CN1m-231" target="NVmyvmoRvvZ_c8W7CN1m-233" edge="1">
          <mxGeometry relative="1" as="geometry" />
        </mxCell>
        <mxCell id="NVmyvmoRvvZ_c8W7CN1m-269" style="edgeStyle=orthogonalEdgeStyle;rounded=0;orthogonalLoop=1;jettySize=auto;html=1;entryX=0;entryY=0.5;entryDx=0;entryDy=0;" parent="1" source="NVmyvmoRvvZ_c8W7CN1m-231" target="NVmyvmoRvvZ_c8W7CN1m-235" edge="1">
          <mxGeometry relative="1" as="geometry" />
        </mxCell>
        <mxCell id="NVmyvmoRvvZ_c8W7CN1m-231" value="risk" style="rounded=0;whiteSpace=wrap;html=1;fillColor=#f8cecc;strokeColor=#b85450;" parent="1" vertex="1">
          <mxGeometry x="7170" y="330" width="120" height="60" as="geometry" />
        </mxCell>
        <mxCell id="NVmyvmoRvvZ_c8W7CN1m-232" value="By product" style="rounded=0;whiteSpace=wrap;html=1;" parent="1" vertex="1">
          <mxGeometry x="7370" y="430" width="120" height="60" as="geometry" />
        </mxCell>
        <mxCell id="NVmyvmoRvvZ_c8W7CN1m-233" value="By division" style="rounded=0;whiteSpace=wrap;html=1;" parent="1" vertex="1">
          <mxGeometry x="7370" y="539.5" width="120" height="60" as="geometry" />
        </mxCell>
        <mxCell id="NVmyvmoRvvZ_c8W7CN1m-235" value="By product program" style="rounded=0;whiteSpace=wrap;html=1;" parent="1" vertex="1">
          <mxGeometry x="7370" y="629.5" width="120" height="60" as="geometry" />
        </mxCell>
        <mxCell id="NVmyvmoRvvZ_c8W7CN1m-249" style="edgeStyle=orthogonalEdgeStyle;rounded=0;orthogonalLoop=1;jettySize=auto;html=1;entryX=0;entryY=0.5;entryDx=0;entryDy=0;" parent="1" source="NVmyvmoRvvZ_c8W7CN1m-237" target="NVmyvmoRvvZ_c8W7CN1m-238" edge="1">
          <mxGeometry relative="1" as="geometry" />
        </mxCell>
        <mxCell id="NVmyvmoRvvZ_c8W7CN1m-270" style="edgeStyle=orthogonalEdgeStyle;rounded=0;orthogonalLoop=1;jettySize=auto;html=1;entryX=0;entryY=0.5;entryDx=0;entryDy=0;" parent="1" source="NVmyvmoRvvZ_c8W7CN1m-237" target="NVmyvmoRvvZ_c8W7CN1m-239" edge="1">
          <mxGeometry relative="1" as="geometry" />
        </mxCell>
        <mxCell id="NVmyvmoRvvZ_c8W7CN1m-271" style="edgeStyle=orthogonalEdgeStyle;rounded=0;orthogonalLoop=1;jettySize=auto;html=1;entryX=0;entryY=0.5;entryDx=0;entryDy=0;" parent="1" source="NVmyvmoRvvZ_c8W7CN1m-237" target="NVmyvmoRvvZ_c8W7CN1m-240" edge="1">
          <mxGeometry relative="1" as="geometry" />
        </mxCell>
        <mxCell id="NVmyvmoRvvZ_c8W7CN1m-237" value="collection" style="rounded=0;whiteSpace=wrap;html=1;fillColor=#f8cecc;strokeColor=#b85450;" parent="1" vertex="1">
          <mxGeometry x="7580" y="330" width="120" height="60" as="geometry" />
        </mxCell>
        <mxCell id="NVmyvmoRvvZ_c8W7CN1m-238" value="By division" style="rounded=0;whiteSpace=wrap;html=1;" parent="1" vertex="1">
          <mxGeometry x="7770" y="425" width="120" height="60" as="geometry" />
        </mxCell>
        <mxCell id="NVmyvmoRvvZ_c8W7CN1m-239" value="By product" style="rounded=0;whiteSpace=wrap;html=1;" parent="1" vertex="1">
          <mxGeometry x="7770" y="539.5" width="120" height="60" as="geometry" />
        </mxCell>
        <mxCell id="NVmyvmoRvvZ_c8W7CN1m-240" value="By product program" style="rounded=0;whiteSpace=wrap;html=1;" parent="1" vertex="1">
          <mxGeometry x="7770" y="632" width="120" height="60" as="geometry" />
        </mxCell>
        <mxCell id="NVmyvmoRvvZ_c8W7CN1m-272" style="edgeStyle=orthogonalEdgeStyle;rounded=0;orthogonalLoop=1;jettySize=auto;html=1;entryX=0;entryY=0.5;entryDx=0;entryDy=0;" parent="1" source="NVmyvmoRvvZ_c8W7CN1m-241" target="NVmyvmoRvvZ_c8W7CN1m-242" edge="1">
          <mxGeometry relative="1" as="geometry">
            <Array as="points">
              <mxPoint x="8170" y="360" />
              <mxPoint x="8170" y="445" />
            </Array>
          </mxGeometry>
        </mxCell>
        <mxCell id="NVmyvmoRvvZ_c8W7CN1m-273" style="edgeStyle=orthogonalEdgeStyle;rounded=0;orthogonalLoop=1;jettySize=auto;html=1;entryX=0;entryY=0.5;entryDx=0;entryDy=0;" parent="1" source="NVmyvmoRvvZ_c8W7CN1m-241" target="NVmyvmoRvvZ_c8W7CN1m-243" edge="1">
          <mxGeometry relative="1" as="geometry">
            <Array as="points">
              <mxPoint x="8170" y="360" />
              <mxPoint x="8170" y="570" />
            </Array>
          </mxGeometry>
        </mxCell>
        <mxCell id="NVmyvmoRvvZ_c8W7CN1m-274" style="edgeStyle=orthogonalEdgeStyle;rounded=0;orthogonalLoop=1;jettySize=auto;html=1;entryX=0;entryY=0.5;entryDx=0;entryDy=0;" parent="1" source="NVmyvmoRvvZ_c8W7CN1m-241" target="NVmyvmoRvvZ_c8W7CN1m-244" edge="1">
          <mxGeometry relative="1" as="geometry" />
        </mxCell>
        <mxCell id="NVmyvmoRvvZ_c8W7CN1m-275" style="edgeStyle=orthogonalEdgeStyle;rounded=0;orthogonalLoop=1;jettySize=auto;html=1;entryX=0;entryY=0.5;entryDx=0;entryDy=0;" parent="1" source="NVmyvmoRvvZ_c8W7CN1m-241" target="NVmyvmoRvvZ_c8W7CN1m-245" edge="1">
          <mxGeometry relative="1" as="geometry" />
        </mxCell>
        <mxCell id="NVmyvmoRvvZ_c8W7CN1m-276" style="edgeStyle=orthogonalEdgeStyle;rounded=0;orthogonalLoop=1;jettySize=auto;html=1;entryX=0;entryY=0.5;entryDx=0;entryDy=0;" parent="1" source="NVmyvmoRvvZ_c8W7CN1m-241" target="NVmyvmoRvvZ_c8W7CN1m-246" edge="1">
          <mxGeometry relative="1" as="geometry" />
        </mxCell>
        <mxCell id="NVmyvmoRvvZ_c8W7CN1m-277" style="edgeStyle=orthogonalEdgeStyle;rounded=0;orthogonalLoop=1;jettySize=auto;html=1;entryX=0;entryY=0.5;entryDx=0;entryDy=0;" parent="1" source="NVmyvmoRvvZ_c8W7CN1m-241" target="NVmyvmoRvvZ_c8W7CN1m-247" edge="1">
          <mxGeometry relative="1" as="geometry" />
        </mxCell>
        <mxCell id="NVmyvmoRvvZ_c8W7CN1m-278" style="edgeStyle=orthogonalEdgeStyle;rounded=0;orthogonalLoop=1;jettySize=auto;html=1;entryX=0;entryY=0.5;entryDx=0;entryDy=0;" parent="1" source="NVmyvmoRvvZ_c8W7CN1m-241" target="NVmyvmoRvvZ_c8W7CN1m-248" edge="1">
          <mxGeometry relative="1" as="geometry" />
        </mxCell>
        <mxCell id="NVmyvmoRvvZ_c8W7CN1m-241" value="Revenue&lt;br&gt;(Doanh thu)" style="rounded=0;whiteSpace=wrap;html=1;fillColor=#f8cecc;strokeColor=#b85450;" parent="1" vertex="1">
          <mxGeometry x="8010" y="330" width="120" height="60" as="geometry" />
        </mxCell>
        <mxCell id="NVmyvmoRvvZ_c8W7CN1m-242" value="By division" style="rounded=0;whiteSpace=wrap;html=1;" parent="1" vertex="1">
          <mxGeometry x="8200" y="415" width="120" height="60" as="geometry" />
        </mxCell>
        <mxCell id="NVmyvmoRvvZ_c8W7CN1m-243" value="By dregion" style="rounded=0;whiteSpace=wrap;html=1;" parent="1" vertex="1">
          <mxGeometry x="8200" y="539.5" width="120" height="60" as="geometry" />
        </mxCell>
        <mxCell id="NVmyvmoRvvZ_c8W7CN1m-244" value="By center" style="rounded=0;whiteSpace=wrap;html=1;" parent="1" vertex="1">
          <mxGeometry x="8200" y="637.5" width="120" height="60" as="geometry" />
        </mxCell>
        <mxCell id="NVmyvmoRvvZ_c8W7CN1m-245" value="By product" style="rounded=0;whiteSpace=wrap;html=1;" parent="1" vertex="1">
          <mxGeometry x="8200" y="742" width="120" height="60" as="geometry" />
        </mxCell>
        <mxCell id="NVmyvmoRvvZ_c8W7CN1m-246" value="By sales" style="rounded=0;whiteSpace=wrap;html=1;" parent="1" vertex="1">
          <mxGeometry x="8200" y="854.5" width="120" height="60" as="geometry" />
        </mxCell>
        <mxCell id="NVmyvmoRvvZ_c8W7CN1m-247" value="By customer" style="rounded=0;whiteSpace=wrap;html=1;" parent="1" vertex="1">
          <mxGeometry x="8200" y="960" width="120" height="60" as="geometry" />
        </mxCell>
        <mxCell id="NVmyvmoRvvZ_c8W7CN1m-248" value="By product program" style="rounded=0;whiteSpace=wrap;html=1;" parent="1" vertex="1">
          <mxGeometry x="8200" y="1070" width="120" height="60" as="geometry" />
        </mxCell>
      </root>
    </mxGraphModel>
  </diagram>
</mxfile>
